<?xml version="1.0" encoding="UTF-8"?>
<svg xmlns="http://www.w3.org/2000/svg" version="1.1" xmlns:xlink="http://www.w3.org/1999/xlink" viewBox="0 0 1920 1080">
  <!-- Generator: Adobe Illustrator 29.8.3, SVG Export Plug-In . SVG Version: 2.1.1 Build 3)  -->
  <defs>
    <style>
      .st0 {
        fill: url(#linear-gradient);
      }

      .st0, .st1, .st2, .st3, .st4, .st5, .st6, .st7, .st8, .st9, .st10, .st11, .st12, .st13, .st14, .st15, .st16, .st17, .st18 {
        stroke-miterlimit: 10;
      }

      .st0, .st5, .st6, .st14 {
        stroke: #ccc;
      }

      .st19 {
        fill: #2e3192;
      }

      .st1 {
        stroke: #0d889a;
        stroke-width: 4.45px;
      }

      .st1, .st20, .st3, .st4, .st5, .st6, .st7, .st8, .st9, .st10, .st11, .st12, .st13, .st16, .st17, .st18 {
        fill: none;
      }

      .st2 {
        fill: #fff;
        stroke: #000;
      }

      .st21 {
        fill: #262626;
      }

      .st22 {
        fill: url(#radial-gradient);
      }

      .st3 {
        stroke: #00a99d;
        stroke-width: 5px;
      }

      .st23 {
        fill: url(#radial-gradient1);
      }

      .st24 {
        clip-path: url(#clippath-1);
      }

      .st4 {
        stroke: #049e9c;
        stroke-width: 4.82px;
      }

      .st25 {
        fill: #231f20;
      }

      .st6, .st9 {
        stroke-width: .5px;
      }

      .st7 {
        stroke: #2a3c93;
        stroke-width: 3.18px;
      }

      .st8 {
        stroke: #264794;
        stroke-width: 3.36px;
      }

      .st9, .st15 {
        stroke: #231f20;
      }

      .st26 {
        font-family: MyriadPro-Regular, 'Myriad Pro';
        font-size: 72px;
      }

      .st27 {
        display: none;
      }

      .st10 {
        stroke: #196897;
        stroke-width: 3.91px;
      }

      .st11 {
        stroke: #2e3192;
        stroke-width: 3px;
      }

      .st12 {
        stroke: #117d99;
        stroke-width: 4.27px;
      }

      .st28 {
        fill: #ccc;
      }

      .st29 {
        fill: url(#radial-gradient2);
      }

      .st13 {
        stroke: #157298;
        stroke-width: 4.09px;
      }

      .st14 {
        fill: #00a99d;
      }

      .st30 {
        fill: gray;
      }

      .st15 {
        fill: #646366;
      }

      .st31 {
        fill: url(#radial-gradient3);
      }

      .st16 {
        stroke: #215295;
        stroke-width: 3.55px;
      }

      .st17 {
        stroke: #1d5d96;
        stroke-width: 3.73px;
      }

      .st32 {
        clip-path: url(#clippath);
      }

      .st18 {
        stroke: #08939b;
        stroke-width: 4.64px;
      }
    </style>
    <clipPath id="clippath">
      <polygon class="st20" points="609.83 636.67 590.45 621.3 594.91 616.1 585.15 610.91 603.47 602.94 591.47 599.21 608.56 585.42 577.55 565.08 555.86 579.2 544.26 604.05 544.26 636.67 559.89 651.68 592.15 647.26 609.83 636.67"/>
    </clipPath>
    <clipPath id="clippath-1">
      <polygon class="st20" points="834.47 641.22 815.09 625.85 819.54 620.65 809.79 615.46 828.11 607.5 816.11 603.76 833.2 589.98 852.62 586.91 856.35 638.16 834.47 641.22"/>
    </clipPath>
    <linearGradient id="linear-gradient" x1="708.74" y1="368.89" x2="795.25" y2="368.89" gradientUnits="userSpaceOnUse">
      <stop offset="0" stop-color="#2e3192"/>
      <stop offset="1" stop-color="#00a99d"/>
    </linearGradient>
    <radialGradient id="radial-gradient" cx="581.12" cy="362.58" fx="591.22" fy="362.58" r="29.28" gradientUnits="userSpaceOnUse">
      <stop offset="0" stop-color="#00a99d"/>
      <stop offset="1" stop-color="gray"/>
    </radialGradient>
    <radialGradient id="radial-gradient1" cx="585.93" cy="362.59" fx="585.93" fy="362.59" r="9.72" gradientUnits="userSpaceOnUse">
      <stop offset="0" stop-color="#000"/>
      <stop offset=".73" stop-color="#2e3192"/>
    </radialGradient>
    <radialGradient id="radial-gradient2" cx="826.38" cy="366.88" fx="809.2" fy="366.88" r="20.69" xlink:href="#radial-gradient"/>
    <radialGradient id="radial-gradient3" cx="815.11" cy="367.76" fx="815.11" fy="367.76" r="6.04" gradientUnits="userSpaceOnUse">
      <stop offset="0" stop-color="#000"/>
      <stop offset=".82" stop-color="#2e3192"/>
    </radialGradient>
  </defs>
  <g id="Layer_1" class="st27">
    <line class="st2" x1="-1920" y1="-1128.91" x2="-1920" y2="-48.91"/>
    <line class="st2" x1="-1600" y1="-1128.91" x2="-1600" y2="-48.91"/>
    <line class="st2" x1="0" y1="-1128.91" x2="-1917.68" y2="-1128.91"/>
    <line class="st2" x1="0" y1="-858.91" x2="-1917.68" y2="-858.91"/>
    <line class="st2" x1="0" y1="-588.91" x2="-1917.68" y2="-588.91"/>
    <line class="st2" x1="0" y1="-318.91" x2="-1917.68" y2="-318.91"/>
    <line class="st2" x1="-26.49" y1="-183.91" x2="-1944.17" y2="-183.91"/>
    <line class="st2" x1="0" y1="-993.91" x2="-1917.68" y2="-993.91"/>
    <line class="st2" x1="0" y1="-48.91" x2="-1917.68" y2="-48.91"/>
    <line class="st2" x1="-1280" y1="-1128.91" x2="-1280" y2="-48.91"/>
    <line class="st2" x1="-960" y1="-1128.91" x2="-960" y2="-48.91"/>
    <line class="st2" x1="-640" y1="-1128.91" x2="-640" y2="-48.91"/>
    <line class="st2" x1="-320" y1="-1128.91" x2="-320" y2="-48.91"/>
    <line class="st2" x1="320" y1="-1128.91" x2="320" y2="-48.91"/>
    <line class="st2" y1="-1128.91" y2="-48.91"/>
  </g>
  <g id="Layer_4" class="st27">
    <rect class="st21" x="504.01" y="153.45" width="432.44" height="312.11"/>
  </g>
  <g id="Layer_2" class="st27">
    <g>
      <path class="st3" d="M-960-588.91c160,0,160,270,320,270,160,0,160-540,320-540S-160-588.91,0-588.91c-160,0-160-270-320-270s-160,540-320,540c-160,0-160-270-320-270s-160-270-320-270c-160,0-160,540-320,540-160,0-160-270-320-270,160,0,160,270,320,270,160,0,160-540,320-540,160,0,160,270,320,270Z"/>
      <path class="st4" d="M0-588.91c-160,0-160-233.18-320-233.18s-160,515.45-320,515.45-160-257.73-320-257.73c-160,0-160-270-320-270-160,0-160,539.09-320,539.09-160,0-160-293.64-320-293.64,160,0,160,233.18,320,233.18,160,0,160-515.45,320-515.45,160,0,160,257.73,320,257.73,160,0,160,270,320,270,160,0,160-539.09,320-539.09S-160-588.91,0-588.91Z"/>
      <path class="st18" d="M0-588.91c-160,0-160-196.36-320-196.36s-160,490.91-320,490.91c-160,0-160-245.45-320-245.45-160,0-160-270-320-270-160,0-160,538.18-320,538.18-160,0-160-317.27-320-317.27,160,0,160,196.36,320,196.36s160-490.91,320-490.91c160,0,160,245.45,320,245.45,160,0,160,270,320,270,160,0,160-538.18,320-538.18S-160-588.91,0-588.91Z"/>
      <path class="st1" d="M0-588.91c-160,0-160-159.55-320-159.55s-160,466.36-320,466.36c-160,0-160-233.18-320-233.18-160,0-160-270-320-270-160,0-160,537.27-320,537.27-160,0-160-340.91-320-340.91,160,0,160,159.55,320,159.55,160,0,160-466.36,320-466.36,160,0,160,233.18,320,233.18,160,0,160,270,320,270,160,0,160-537.27,320-537.27S-160-588.91,0-588.91Z"/>
      <path class="st12" d="M0-588.91c-160,0-160-122.73-320-122.73-160,0-160,441.82-320,441.82-160,0-160-220.91-320-220.91-160,0-160-270-320-270-160,0-160,536.36-320,536.36-160,0-160-364.55-320-364.55,160,0,160,122.73,320,122.73s160-441.82,320-441.82c160,0,160,220.91,320,220.91,160,0,160,270,320,270,160,0,160-536.36,320-536.36S-160-588.91,0-588.91Z"/>
      <path class="st13" d="M0-588.91c-160,0-160-85.91-320-85.91-160,0-160,417.27-320,417.27-160,0-160-208.64-320-208.64-160,0-160-270-320-270-160,0-160,535.45-320,535.45-160,0-160-388.18-320-388.18,160,0,160,85.91,320,85.91,160,0,160-417.27,320-417.27,160,0,160,208.64,320,208.64,160,0,160,270,320,270,160,0,160-535.45,320-535.45S-160-588.91,0-588.91Z"/>
      <path class="st10" d="M0-588.91c-160,0-160-49.09-320-49.09-160,0-160,392.73-320,392.73-160,0-160-196.36-320-196.36-160,0-160-270-320-270s-160,534.55-320,534.55c-160,0-160-411.82-320-411.82,160,0,160,49.09,320,49.09,160,0,160-392.73,320-392.73,160,0,160,196.36,320,196.36,160,0,160,270,320,270,160,0,160-534.55,320-534.55S-160-588.91,0-588.91Z"/>
      <path class="st17" d="M0-588.91c-160,0-160-12.27-320-12.27-160,0-160,368.18-320,368.18-160,0-160-184.09-320-184.09-160,0-160-270-320-270-160,0-160,533.64-320,533.64-160,0-160-435.45-320-435.45,160,0,160,12.27,320,12.27,160,0,160-368.18,320-368.18,160,0,160,184.09,320,184.09,160,0,160,270,320,270,160,0,160-533.64,320-533.64S-160-588.91,0-588.91Z"/>
      <path class="st16" d="M0-588.91c-160,0-160,24.55-320,24.55-160,0-160,343.64-320,343.64s-160-171.82-320-171.82c-160,0-160-270-320-270-160,0-160,532.73-320,532.73-160,0-160-459.09-320-459.09,160,0,160-24.55,320-24.55s160-343.64,320-343.64c160,0,160,171.82,320,171.82,160,0,160,270,320,270s160-532.73,320-532.73S-160-588.91,0-588.91Z"/>
      <path class="st8" d="M0-588.91c-160,0-160,61.36-320,61.36-160,0-160,319.09-320,319.09-160,0-160-159.55-320-159.55-160,0-160-270-320-270S-1440-106.18-1600-106.18c-160,0-160-482.73-320-482.73,160,0,160-61.36,320-61.36,160,0,160-319.09,320-319.09s160,159.55,320,159.55c160,0,160,270,320,270,160,0,160-531.82,320-531.82S-160-588.91,0-588.91Z"/>
      <path class="st7" d="M0-588.91c-160,0-160,98.18-320,98.18-160,0-160,294.55-320,294.55-160,0-160-147.27-320-147.27-160,0-160-270-320-270-160,0-160,530.91-320,530.91-160,0-160-506.36-320-506.36,160,0,160-98.18,320-98.18,160,0,160-294.55,320-294.55,160,0,160,147.27,320,147.27,160,0,160,270,320,270,160,0,160-530.91,320-530.91S-160-588.91,0-588.91Z"/>
      <path class="st11" d="M0-588.91c-160,0-160,135-320,135-160,0-160,270-320,270-160,0-160-135-320-135-160,0-160-270-320-270-160,0-160,530-320,530-160,0-160-530-320-530,160,0,160-135,320-135,160,0,160-270,320-270,160,0,160,135,320,135,160,0,160,270,320,270,160,0,160-530,320-530S-160-588.91,0-588.91Z"/>
    </g>
    <text class="st26" transform="translate(571.31 254.98)"><tspan x="0" y="0">Chinook</tspan></text>
    <g>
      <path class="st15" d="M495.65,517.4l-2.48.33,1.16.83,5.2,3.76,5.11,3.67,2.78,2-9.67,4.66,5.77,2.29c-4.97,3.2-10.9,5.06-17.26,5.06-17.58,0-31.85-14.26-31.85-31.84s14.27-31.85,31.85-31.85c7.91,0,15.16,2.88,20.71,7.66l-5.45,3.61-5.62,3.75-3.77,2.5,10.21,3.47,8.11,2.75-5.05,4.95-3.66,3.59-2.66,2.61-.28.27.2.06,3.18.87,2.82.79,5.99,1.66,1.33.37-1.49.2-6.97.91-8.19,1.06h-.01Z"/>
      <circle class="st25" cx="486.26" cy="508.16" r="6.97"/>
      <line class="st9" x1="495.65" y1="517.41" x2="495.64" y2="517.41"/>
      <path class="st9" d="M503.85,516.34l6.97-.91c.06-.18.12-.37.17-.56"/>
      <path class="st9" d="M501.52,487.58c-4.26-3.18-9.55-5.05-15.27-5.05-14.16,0-25.63,11.47-25.63,25.63s11.47,25.62,25.63,25.62c7.22,0,13.74-2.98,18.38-7.79"/>
      <line class="st9" x1="495.65" y1="517.41" x2="495.64" y2="517.41"/>
      <path class="st9" d="M505,513.21c-.29,1.08-.67,2.13-1.15,3.14"/>
      <path class="st9" d="M495.9,491.33c-2.83-1.65-6.14-2.58-9.65-2.58-10.72,0-19.41,8.69-19.41,19.41s8.69,19.41,19.41,19.41c5.13,0,9.8-2,13.27-5.25"/>
      <path class="st9" d="M505.41,505.01c-.46-2.81-1.52-5.42-3.05-7.7"/>
      <path class="st25" d="M486.26,494.98c7.28,0,13.18,5.9,13.18,13.18,0,1.05-.12,2.07-.36,3.04l-.28.27.2.06c-.59,2.25-1.76,4.28-3.34,5.86h-.01l-2.48.33,1.16.83c-2.23,1.75-5.03,2.78-8.07,2.78-7.28,0-13.18-5.9-13.18-13.18s5.9-13.18,13.18-13.18M486.26,494.48c-7.55,0-13.68,6.14-13.68,13.68s6.14,13.68,13.68,13.68c3.07,0,5.97-1,8.38-2.89l.53-.41-.54-.39-.13-.09,1.19-.16h.17l.16-.15c1.66-1.68,2.86-3.78,3.47-6.09l.05-.2h0s.02-.09.02-.09l.05-.18h0c.23-.99.34-2.01.34-3.04,0-7.55-6.14-13.68-13.68-13.68h0Z"/>
    </g>
    <path class="st15" d="M495.65,585.78l-2.48.33,1.16.83,5.2,3.76,5.11,3.67,2.78,2-9.67,4.66,5.77,2.29c-4.97,3.2-10.9,5.06-17.26,5.06-17.58,0-31.85-14.26-31.85-31.84s14.27-31.85,31.85-31.85c7.91,0,15.16,2.88,20.71,7.66l-5.45,3.61-5.62,3.75-3.77,2.5,10.21,3.47,8.11,2.75-5.05,4.95-3.66,3.59-2.66,2.61-.28.27.2.06,3.18.87,2.82.79,5.99,1.66,1.33.37-1.49.2-6.97.91-8.19,1.06h-.01Z"/>
    <circle class="st25" cx="486.26" cy="576.54" r="6.97"/>
    <line class="st9" x1="495.65" y1="585.79" x2="495.64" y2="585.79"/>
    <path class="st9" d="M503.85,584.72l6.97-.91c.06-.18.12-.37.17-.56"/>
    <path class="st9" d="M501.52,555.96c-4.26-3.18-9.55-5.05-15.27-5.05-14.16,0-25.63,11.47-25.63,25.63s11.47,25.62,25.63,25.62c7.22,0,13.74-2.98,18.38-7.79"/>
    <line class="st9" x1="495.65" y1="585.79" x2="495.64" y2="585.79"/>
    <path class="st9" d="M505,581.58c-.29,1.08-.67,2.13-1.15,3.14"/>
    <path class="st9" d="M495.9,559.71c-2.83-1.65-6.14-2.58-9.65-2.58-10.72,0-19.41,8.69-19.41,19.41s8.69,19.41,19.41,19.41c5.13,0,9.8-2,13.27-5.25"/>
    <path class="st9" d="M505.41,573.38c-.46-2.81-1.52-5.42-3.05-7.7"/>
    <path class="st25" d="M486.26,563.36c7.28,0,13.18,5.9,13.18,13.18,0,1.05-.12,2.07-.36,3.04l-.28.27.2.06c-.59,2.25-1.76,4.28-3.34,5.86h-.01l-2.48.33,1.16.83c-2.23,1.75-5.03,2.78-8.07,2.78-7.28,0-13.18-5.9-13.18-13.18s5.9-13.18,13.18-13.18M486.26,562.86c-7.55,0-13.68,6.14-13.68,13.68s6.14,13.68,13.68,13.68c3.07,0,5.97-1,8.38-2.89l.53-.41-.54-.39-.13-.09,1.19-.16h.17l.16-.15c1.66-1.68,2.86-3.78,3.47-6.09l.05-.2h0s.02-.09.02-.09l.05-.18h0c.23-.99.34-2.01.34-3.04,0-7.55-6.14-13.68-13.68-13.68h0Z"/>
    <g class="st32">
      <g>
        <circle class="st14" cx="586.49" cy="611.05" r="31.84"/>
        <circle class="st6" cx="586.49" cy="611.05" r="25.63"/>
        <circle class="st19" cx="586.49" cy="611.05" r="10"/>
        <circle class="st6" cx="586.49" cy="611.05" r="19.41"/>
        <circle class="st6" cx="586.49" cy="611.05" r="13.19"/>
      </g>
    </g>
    <g class="st24">
      <g>
        <circle class="st14" cx="811.13" cy="615.6" r="31.84"/>
        <circle class="st6" cx="811.13" cy="615.6" r="25.63"/>
        <circle class="st19" cx="811.13" cy="615.6" r="10"/>
        <circle class="st6" cx="811.13" cy="615.6" r="19.41"/>
        <circle class="st6" cx="811.13" cy="615.6" r="13.19"/>
      </g>
    </g>
  </g>
  <g id="Layer_5">
    <g>
      <path class="st28" d="M645.31,390.16h-8.02v-23.24c0-2.51-.53-4.27-1.6-5.29s-2.31-1.53-3.74-1.53c-2.27,0-4.18.9-5.73,2.71s-2.32,4.78-2.32,8.93v18.42h-8.02v-47.99h8.02v18.7c1.99-5.11,5.48-7.66,10.48-7.66,7.29,0,10.93,4.18,10.93,12.55v24.4Z"/>
      <path class="st28" d="M662.92,350.5h-8.02v-8.33h8.02v8.33ZM662.92,390.16h-8.02v-35.51h8.02v35.51Z"/>
      <path class="st28" d="M701.94,390.16h-8.02v-22.18c0-2.34-.54-4.11-1.62-5.29s-2.38-1.78-3.9-1.78c-2.09,0-3.91.91-5.48,2.74s-2.36,4.58-2.36,8.26v18.25h-8.02v-35.51h7.31v8.23c2.55-5.98,6.14-8.96,10.76-8.96,3.12,0,5.78.98,8,2.95s3.32,5.43,3.32,10.37v22.92Z"/>
      <path class="st28" d="M809.52,390.16h-8.02v-47.99h8.02v47.99Z"/>
    </g>
    <g>
      <rect class="st0" x="708.74" y="346.38" width="86.51" height="45.01" rx="3" ry="3"/>
      <g>
        <path class="st30" d="M729.05,385.83c-9.34,0-16.94-7.6-16.94-16.94s7.6-16.94,16.94-16.94,16.94,7.6,16.94,16.94-7.6,16.94-16.94,16.94Z"/>
        <path class="st28" d="M729.05,352.45c9.08,0,16.44,7.36,16.44,16.44s-7.36,16.44-16.44,16.44-16.44-7.36-16.44-16.44,7.36-16.44,16.44-16.44M729.05,351.45c-9.62,0-17.44,7.82-17.44,17.44s7.82,17.44,17.44,17.44,17.44-7.82,17.44-17.44-7.82-17.44-17.44-17.44h0Z"/>
      </g>
      <g>
        <path class="st30" d="M771.69,389.09c-11.13,0-20.19-9.06-20.19-20.19s9.06-20.19,20.19-20.19,20.19,9.06,20.19,20.19-9.06,20.19-20.19,20.19Z"/>
        <path class="st28" d="M771.69,349.2c10.88,0,19.69,8.82,19.69,19.69s-8.82,19.69-19.69,19.69-19.69-8.82-19.69-19.69,8.82-19.69,19.69-19.69M771.69,348.2c-11.41,0-20.69,9.28-20.69,20.69s9.28,20.69,20.69,20.69,20.69-9.28,20.69-20.69-9.28-20.69-20.69-20.69h0Z"/>
      </g>
      <circle class="st25" cx="771.69" cy="368.89" r="4.31"/>
      <circle class="st25" cx="729.05" cy="368.89" r="4.31"/>
    </g>
    <g>
      <path class="st22" d="M607.59,386.44c-5.62,4.97-13.01,7.99-21.1,7.99-17.59,0-31.84-14.25-31.84-31.84s14.25-31.85,31.84-31.85c7.8,0,14.96,2.81,20.5,7.48l-4.95,4-5.03,4.06-5.24,4.23-.3.24,1.91.59,10.09,3.14-5.16,2.25-2.94,1.27-10.22,4.45,9.76,5.19-2.7,3.14-1.76,2.06,1.95,1.54,5.19,4.12,5.03,3.99,4.97,3.95Z"/>
      <path class="st6" d="M597.59,378.5l5.03,3.99c-4.41,3.58-10.02,5.72-16.13,5.72-14.15,0-25.63-11.47-25.63-25.62s11.48-25.63,25.63-25.63c5.84,0,11.24,1.96,15.55,5.26l-5.03,4.06-5.24,4.23-.3.24,1.91.59,10.09,3.14-5.16,2.25-2.94,1.27-10.22,4.45,9.76,5.19-2.7,3.14-1.76,2.06,1.95,1.54,5.19,4.12Z"/>
      <path class="st23" d="M585.15,362.45l9.76,5.19-2.7,3.14c-1.62,1.14-3.59,1.81-5.72,1.81-5.52,0-10-4.48-10-10s4.48-10,10-10c3.87,0,7.22,2.2,8.88,5.41l-10.22,4.45Z"/>
      <path class="st6" d="M595.37,358l-10.22,4.45,9.76,5.19-2.7,3.14-1.76,2.06,1.95,1.54,5.19,4.12c-3.15,2.2-6.97,3.49-11.1,3.49-10.72,0-19.41-8.68-19.41-19.4s8.69-19.41,19.41-19.41c3.88,0,7.49,1.14,10.52,3.1l-5.24,4.23-.3.24,1.91.59,10.09,3.14-5.16,2.25-2.94,1.27Z"/>
      <path class="st6" d="M595.37,358l-10.22,4.45,9.76,5.19-2.7,3.14-1.76,2.06,1.95,1.54c-1.78.9-3.79,1.4-5.91,1.4-7.28,0-13.19-5.91-13.19-13.19s5.91-13.19,13.19-13.19c1.88,0,3.67.39,5.28,1.11l-.3.24,1.91.59c2.11,1.3,3.82,3.16,4.93,5.39l-2.94,1.27Z"/>
    </g>
    <g>
      <path class="st29" d="M842.97,367.14c0,9.49-4.15,18.01-10.74,23.84l-4.97-3.94-5.02-3.98-5.21-4.13-1.94-1.54,1.74-2.04h.01s2.7-3.16,2.7-3.16l-9.75-5.19,10.22-4.44,2.93-1.27,5.17-2.25-10.13-3.16-1.87-.58.3-.24,5.23-4.22,5.04-4.06,4.95-4c6.94,5.84,11.34,14.58,11.34,24.36Z"/>
      <path class="st31" d="M821.13,367.14c0,3.4-1.7,6.4-4.29,8.2l2.7-3.15-9.75-5.19,10.22-4.44c.72,1.37,1.12,2.93,1.12,4.58Z"/>
      <path class="st6" d="M836.75,367.14c0,8.04-3.7,15.21-9.49,19.9l-5.02-3.98-5.21-4.13-1.94-1.54,1.74-2.04h.01s2.7-3.16,2.7-3.16l-9.75-5.19,10.22-4.44,2.93-1.27,5.17-2.25-10.13-3.16-1.87-.58.3-.24,5.23-4.22,5.04-4.06c6.12,4.68,10.07,12.06,10.07,20.36Z"/>
      <path class="st6" d="M817.98,355.88l-1.87-.58.3-.24c.55.24,1.07.51,1.57.82Z"/>
      <path class="st6" d="M824.31,367.14c0,5.16-2.96,9.63-7.28,11.79l-1.94-1.54,1.74-2.04h.01s2.7-3.16,2.7-3.16l-9.75-5.19,10.22-4.44,2.93-1.27c.88,1.76,1.37,3.75,1.37,5.85Z"/>
    </g>
    <path class="st5" d="M842.97,367.14c0,9.49-4.15,18.01-10.74,23.84l-4.97-3.94-5.02-3.98-5.21-4.13-1.94-1.54,1.74-2.04h.01s2.7-3.16,2.7-3.16l-9.75-5.19,10.22-4.44,2.93-1.27,5.17-2.25-10.13-3.16-1.87-.58.3-.24,5.23-4.22,5.04-4.06,4.95-4c6.94,5.84,11.34,14.58,11.34,24.36Z"/>
    <path class="st5" d="M607.59,386.44c-5.62,4.97-13.01,7.99-21.1,7.99-17.59,0-31.84-14.25-31.84-31.84s14.25-31.85,31.84-31.85c7.8,0,14.96,2.81,20.5,7.48l-4.95,4-5.03,4.06-5.24,4.23-.3.24,1.91.59,10.09,3.14-5.16,2.25-2.94,1.27-10.22,4.45,9.76,5.19-2.7,3.14-1.76,2.06,1.95,1.54,5.19,4.12,5.03,3.99,4.97,3.95Z"/>
  </g>
</svg>