<?xml version="1.0" encoding="UTF-8"?>
<svg id="Layer_2" xmlns="http://www.w3.org/2000/svg" version="1.1" viewBox="0 0 1920 1080">
  <!-- Generator: Adobe Illustrator 29.8.3, SVG Export Plug-In . SVG Version: 2.1.1 Build 3)  -->
  <defs>
    <style>
      .st0 {
        stroke: #08939b;
      }

      .st0, .st1, .st2, .st3, .st4, .st5, .st6, .st7, .st8, .st9, .st10, .st11 {
        fill: none;
        stroke-miterlimit: 10;
        stroke-width: 5px;
      }

      .st1 {
        stroke: #2e3192;
      }

      .st2 {
        stroke: #1d5d96;
      }

      .st3 {
        stroke: #264794;
      }

      .st4 {
        stroke: #0d889a;
      }

      .st5 {
        stroke: #2a3c93;
      }

      .st6 {
        stroke: #00a99d;
      }

      .st7 {
        stroke: #117d99;
      }

      .st8 {
        stroke: #196897;
      }

      .st9 {
        stroke: #049e9c;
      }

      .st10 {
        stroke: #215295;
      }

      .st11 {
        stroke: #157298;
      }
    </style>
  </defs>
  <path class="st6" d="M960,540c-160,0-160,270-320,270S480,270,320,270,160,540,0,540c160,0,160-270,320-270s160,540,320,540,160-270,320-270,160-270,320-270,160,540,320,540,160-270,320-270c-160,0-160,270-320,270s-160-540-320-540-160,270-320,270Z"/>
  <path class="st9" d="M0,540c160,0,160-233.18,320-233.18s160,515.45,320,515.45,160-257.73,320-257.73c160,0,160-270,320-270s160,539.09,320,539.09,160-293.64,320-293.64c-160,0-160,233.18-320,233.18s-160-515.45-320-515.45-160,257.73-320,257.73c-160,0-160,270-320,270S480,246.36,320,246.36,160,540,0,540Z"/>
  <path class="st0" d="M0,540c160,0,160-196.36,320-196.36s160,490.91,320,490.91,160-245.45,320-245.45c160,0,160-270,320-270s160,538.18,320,538.18,160-317.27,320-317.27c-160,0-160,196.36-320,196.36s-160-490.91-320-490.91-160,245.45-320,245.45c-160,0-160,270-320,270S480,222.73,320,222.73,160,540,0,540Z"/>
  <path class="st4" d="M0,540c160,0,160-159.55,320-159.55s160,466.36,320,466.36,160-233.18,320-233.18c160,0,160-270,320-270s160,537.27,320,537.27,160-340.91,320-340.91c-160,0-160,159.55-320,159.55s-160-466.36-320-466.36-160,233.18-320,233.18c-160,0-160,270-320,270S480,199.09,320,199.09,160,540,0,540Z"/>
  <path class="st7" d="M0,540c160,0,160-122.73,320-122.73s160,441.82,320,441.82,160-220.91,320-220.91c160,0,160-270,320-270s160,536.36,320,536.36,160-364.55,320-364.55c-160,0-160,122.73-320,122.73s-160-441.82-320-441.82-160,220.91-320,220.91c-160,0-160,270-320,270S480,175.45,320,175.45,160,540,0,540Z"/>
  <path class="st11" d="M0,540c160,0,160-85.91,320-85.91s160,417.27,320,417.27,160-208.64,320-208.64c160,0,160-270,320-270s160,535.45,320,535.45,160-388.18,320-388.18c-160,0-160,85.91-320,85.91s-160-417.27-320-417.27-160,208.64-320,208.64c-160,0-160,270-320,270S480,151.82,320,151.82,160,540,0,540Z"/>
  <path class="st8" d="M0,540c160,0,160-49.09,320-49.09s160,392.73,320,392.73,160-196.36,320-196.36c160,0,160-270,320-270s160,534.55,320,534.55,160-411.82,320-411.82c-160,0-160,49.09-320,49.09s-160-392.73-320-392.73-160,196.36-320,196.36c-160,0-160,270-320,270S480,128.18,320,128.18,160,540,0,540Z"/>
  <path class="st2" d="M0,540c160,0,160-12.27,320-12.27s160,368.18,320,368.18,160-184.09,320-184.09c160,0,160-270,320-270s160,533.64,320,533.64,160-435.45,320-435.45c-160,0-160,12.27-320,12.27s-160-368.18-320-368.18-160,184.09-320,184.09c-160,0-160,270-320,270S480,104.55,320,104.55,160,540,0,540Z"/>
  <path class="st10" d="M0,540c160,0,160,24.55,320,24.55s160,343.64,320,343.64,160-171.82,320-171.82c160,0,160-270,320-270s160,532.73,320,532.73,160-459.09,320-459.09c-160,0-160-24.55-320-24.55s-160-343.64-320-343.64-160,171.82-320,171.82c-160,0-160,270-320,270S480,80.91,320,80.91,160,540,0,540Z"/>
  <path class="st3" d="M0,540c160,0,160,61.36,320,61.36s160,319.09,320,319.09,160-159.55,320-159.55c160,0,160-270,320-270s160,531.82,320,531.82,160-482.73,320-482.73c-160,0-160-61.36-320-61.36s-160-319.09-320-319.09-160,159.55-320,159.55c-160,0-160,270-320,270S480,57.27,320,57.27,160,540,0,540Z"/>
  <path class="st5" d="M0,540c160,0,160,98.18,320,98.18s160,294.55,320,294.55,160-147.27,320-147.27c160,0,160-270,320-270s160,530.91,320,530.91,160-506.36,320-506.36c-160,0-160-98.18-320-98.18s-160-294.55-320-294.55-160,147.27-320,147.27c-160,0-160,270-320,270S480,33.64,320,33.64,160,540,0,540Z"/>
  <path class="st1" d="M0,540c160,0,160,135,320,135s160,270,320,270,160-135,320-135c160,0,160-270,320-270s160,530,320,530,160-530,320-530c-160,0-160-135-320-135s-160-270-320-270-160,135-320,135c-160,0-160,270-320,270S480,10,320,10,160,540,0,540Z"/>
</svg>