<?xml version="1.0" encoding="UTF-8"?>
<svg id="Layer_5" data-name="Layer 5" xmlns="http://www.w3.org/2000/svg" xmlns:xlink="http://www.w3.org/1999/xlink" viewBox="0 0 290.89 67.22">
  <defs>
    <style>
      .cls-1 {
        fill: url(#linear-gradient);
      }

      .cls-1, .cls-2, .cls-3 {
        stroke: #ccc;
        stroke-miterlimit: 10;
      }

      .cls-4 {
        fill: url(#radial-gradient);
      }

      .cls-5 {
        fill: url(#radial-gradient-3);
      }

      .cls-6 {
        fill: #231f20;
      }

      .cls-2, .cls-3 {
        fill: none;
      }

      .cls-3 {
        stroke-width: .5px;
      }

      .cls-7 {
        fill: url(#radial-gradient-2);
      }

      .cls-8 {
        fill: url(#radial-gradient-4);
      }

      .cls-9, .cls-10 {
        fill: #ccc;
      }

      .cls-11 {
        fill: gray;
      }

      .cls-10 {
        font-family: FranklinGothic-Medium, 'Franklin Gothic Medium';
        font-size: 72px;
        font-weight: 500;
      }
    </style>
    <linearGradient id="linear-gradient" x1="155.47" y1="40.29" x2="241.98" y2="40.29" gradientUnits="userSpaceOnUse">
      <stop offset="0" stop-color="#2e3192"/>
      <stop offset="1" stop-color="#00a99d"/>
    </linearGradient>
    <radialGradient id="radial-gradient" cx="27.86" cy="33.98" fx="37.95" fy="33.98" r="29.28" gradientUnits="userSpaceOnUse">
      <stop offset="0" stop-color="#00a99d"/>
      <stop offset="1" stop-color="gray"/>
    </radialGradient>
    <radialGradient id="radial-gradient-2" cx="32.67" cy="33.98" fx="32.67" fy="33.98" r="9.72" gradientUnits="userSpaceOnUse">
      <stop offset="0" stop-color="#000"/>
      <stop offset=".73" stop-color="#2e3192"/>
    </radialGradient>
    <radialGradient id="radial-gradient-3" cx="273.12" cy="38.28" fx="255.93" fy="38.28" r="20.69" xlink:href="#radial-gradient"/>
    <radialGradient id="radial-gradient-4" cx="261.85" cy="39.16" fx="261.85" fy="39.16" r="6.04" gradientUnits="userSpaceOnUse">
      <stop offset="0" stop-color="#000"/>
      <stop offset=".82" stop-color="#2e3192"/>
    </radialGradient>
  </defs>
  <text class="cls-10" transform="translate(57.84 61.55)"><tspan x="0" y="0" xml:space="preserve">hin     l</tspan></text>
  <g>
    <rect class="cls-1" x="155.47" y="17.78" width="86.51" height="45.01" rx="3" ry="3"/>
    <g>
      <path class="cls-11" d="M175.78,57.23c-9.34,0-16.94-7.6-16.94-16.94s7.6-16.94,16.94-16.94,16.94,7.6,16.94,16.94-7.6,16.94-16.94,16.94Z"/>
      <path class="cls-9" d="M175.78,23.85c9.08,0,16.44,7.36,16.44,16.44s-7.36,16.44-16.44,16.44-16.44-7.36-16.44-16.44,7.36-16.44,16.44-16.44M175.78,22.85c-9.62,0-17.44,7.82-17.44,17.44s7.82,17.44,17.44,17.44,17.44-7.82,17.44-17.44-7.82-17.44-17.44-17.44h0Z"/>
    </g>
    <g>
      <path class="cls-11" d="M218.42,60.48c-11.13,0-20.19-9.06-20.19-20.19s9.06-20.19,20.19-20.19,20.19,9.06,20.19,20.19-9.06,20.19-20.19,20.19Z"/>
      <path class="cls-9" d="M218.42,20.59c10.88,0,19.69,8.82,19.69,19.69s-8.82,19.69-19.69,19.69-19.69-8.82-19.69-19.69,8.82-19.69,19.69-19.69M218.42,19.59c-11.41,0-20.69,9.28-20.69,20.69s9.28,20.69,20.69,20.69,20.69-9.28,20.69-20.69-9.28-20.69-20.69-20.69h0Z"/>
    </g>
    <circle class="cls-6" cx="218.42" cy="40.29" r="4.31"/>
    <circle class="cls-6" cx="175.78" cy="40.29" r="4.31"/>
  </g>
  <g>
    <path class="cls-4" d="M54.33,57.84c-5.62,4.97-13.01,7.99-21.1,7.99-17.59,0-31.84-14.25-31.84-31.84S15.64,2.14,33.23,2.14c7.8,0,14.96,2.81,20.5,7.48l-4.95,4-5.03,4.06-5.24,4.23-.3.24,1.91.59,10.09,3.14-5.16,2.25-2.94,1.27-10.22,4.45,9.76,5.19-2.7,3.14-1.76,2.06,1.95,1.54,5.19,4.12,5.03,3.99,4.97,3.95Z"/>
    <path class="cls-3" d="M44.33,49.9l5.03,3.99c-4.41,3.58-10.02,5.72-16.13,5.72-14.15,0-25.63-11.47-25.63-25.62s11.48-25.63,25.63-25.63c5.84,0,11.24,1.96,15.55,5.26l-5.03,4.06-5.24,4.23-.3.24,1.91.59,10.09,3.14-5.16,2.25-2.94,1.27-10.22,4.45,9.76,5.19-2.7,3.14-1.76,2.06,1.95,1.54,5.19,4.12Z"/>
    <path class="cls-7" d="M31.89,33.85l9.76,5.19-2.7,3.14c-1.62,1.14-3.59,1.81-5.72,1.81-5.52,0-10-4.48-10-10s4.48-10,10-10c3.87,0,7.22,2.2,8.88,5.41l-10.22,4.45Z"/>
    <path class="cls-3" d="M42.11,29.4l-10.22,4.45,9.76,5.19-2.7,3.14-1.76,2.06,1.95,1.54,5.19,4.12c-3.15,2.2-6.97,3.49-11.1,3.49-10.72,0-19.41-8.68-19.41-19.4s8.69-19.41,19.41-19.41c3.88,0,7.49,1.14,10.52,3.1l-5.24,4.23-.3.24,1.91.59,10.09,3.14-5.16,2.25-2.94,1.27Z"/>
    <path class="cls-3" d="M42.11,29.4l-10.22,4.45,9.76,5.19-2.7,3.14-1.76,2.06,1.95,1.54c-1.78.9-3.79,1.4-5.91,1.4-7.28,0-13.19-5.91-13.19-13.19s5.91-13.19,13.19-13.19c1.88,0,3.67.39,5.28,1.11l-.3.24,1.91.59c2.11,1.3,3.82,3.16,4.93,5.39l-2.94,1.27Z"/>
  </g>
  <g>
    <path class="cls-5" d="M289.71,38.54c0,9.49-4.15,18.01-10.74,23.84l-4.97-3.94-5.02-3.98-5.21-4.13-1.94-1.54,1.74-2.04h.01s2.7-3.16,2.7-3.16l-9.75-5.19,10.22-4.44,2.93-1.27,5.17-2.25-10.13-3.16-1.87-.58.3-.24,5.23-4.22,5.04-4.06,4.95-4c6.94,5.84,11.34,14.58,11.34,24.36Z"/>
    <path class="cls-8" d="M267.87,38.54c0,3.4-1.7,6.4-4.29,8.2l2.7-3.15-9.75-5.19,10.22-4.44c.72,1.37,1.12,2.93,1.12,4.58Z"/>
    <path class="cls-3" d="M283.49,38.54c0,8.04-3.7,15.21-9.49,19.9l-5.02-3.98-5.21-4.13-1.94-1.54,1.74-2.04h.01s2.7-3.16,2.7-3.16l-9.75-5.19,10.22-4.44,2.93-1.27,5.17-2.25-10.13-3.16-1.87-.58.3-.24,5.23-4.22,5.04-4.06c6.12,4.68,10.07,12.06,10.07,20.36Z"/>
    <path class="cls-3" d="M264.72,27.28l-1.87-.58.3-.24c.55.24,1.07.51,1.57.82Z"/>
    <path class="cls-3" d="M271.05,38.54c0,5.16-2.96,9.63-7.28,11.79l-1.94-1.54,1.74-2.04h.01s2.7-3.16,2.7-3.16l-9.75-5.19,10.22-4.44,2.93-1.27c.88,1.76,1.37,3.75,1.37,5.85Z"/>
  </g>
  <path class="cls-2" d="M289.71,38.54c0,9.49-4.15,18.01-10.74,23.84l-4.97-3.94-5.02-3.98-5.21-4.13-1.94-1.54,1.74-2.04h.01s2.7-3.16,2.7-3.16l-9.75-5.19,10.22-4.44,2.93-1.27,5.17-2.25-10.13-3.16-1.87-.58.3-.24,5.23-4.22,5.04-4.06,4.95-4c6.94,5.84,11.34,14.58,11.34,24.36Z"/>
  <path class="cls-2" d="M54.33,57.84c-5.62,4.97-13.01,7.99-21.1,7.99-17.59,0-31.84-14.25-31.84-31.84S15.64,2.14,33.23,2.14c7.8,0,14.96,2.81,20.5,7.48l-4.95,4-5.03,4.06-5.24,4.23-.3.24,1.91.59,10.09,3.14-5.16,2.25-2.94,1.27-10.22,4.45,9.76,5.19-2.7,3.14-1.76,2.06,1.95,1.54,5.19,4.12,5.03,3.99,4.97,3.95Z"/>
</svg>