<?xml version="1.0" encoding="UTF-8"?>
<svg id="Layer_9" data-name="Layer 9" xmlns="http://www.w3.org/2000/svg" xmlns:xlink="http://www.w3.org/1999/xlink" viewBox="0 0 1920 1080">
  <defs>
    <style>
      .cls-1 {
        opacity: .46;
        stroke: url(#linear-gradient-93);
        stroke-width: 2.6px;
      }

      .cls-1, .cls-2, .cls-3, .cls-4, .cls-5, .cls-6, .cls-7, .cls-8, .cls-9, .cls-10, .cls-11, .cls-12, .cls-13, .cls-14, .cls-15, .cls-16, .cls-17, .cls-18, .cls-19, .cls-20, .cls-21, .cls-22, .cls-23, .cls-24, .cls-25, .cls-26, .cls-27, .cls-28, .cls-29, .cls-30, .cls-31, .cls-32, .cls-33, .cls-34, .cls-35, .cls-36, .cls-37, .cls-38, .cls-39, .cls-40, .cls-41, .cls-42, .cls-43, .cls-44, .cls-45, .cls-46, .cls-47, .cls-48, .cls-49, .cls-50, .cls-51, .cls-52, .cls-53, .cls-54, .cls-55, .cls-56, .cls-57, .cls-58, .cls-59, .cls-60, .cls-61, .cls-62, .cls-63, .cls-64, .cls-65, .cls-66, .cls-67, .cls-68, .cls-69, .cls-70, .cls-71, .cls-72, .cls-73, .cls-74, .cls-75, .cls-76, .cls-77, .cls-78, .cls-79, .cls-80, .cls-81, .cls-82, .cls-83, .cls-84, .cls-85, .cls-86, .cls-87, .cls-88, .cls-89, .cls-90, .cls-91, .cls-92, .cls-93, .cls-94, .cls-95, .cls-96, .cls-97, .cls-98, .cls-99 {
        fill: none;
        stroke-miterlimit: 10;
      }

      .cls-2 {
        opacity: .21;
        stroke: url(#linear-gradient-2);
        stroke-width: 1.62px;
      }

      .cls-3 {
        opacity: .88;
        stroke: url(#linear-gradient-66);
        stroke-width: 4.47px;
      }

      .cls-4 {
        opacity: .38;
        stroke: url(#linear-gradient-32);
        stroke-width: 2.54px;
      }

      .cls-5 {
        stroke: url(#linear-gradient-13);
      }

      .cls-5, .cls-29, .cls-32, .cls-50, .cls-76 {
        opacity: .55;
        stroke-width: 3.5px;
      }

      .cls-6 {
        stroke: url(#linear-gradient-9);
      }

      .cls-6, .cls-16, .cls-35, .cls-60, .cls-80, .cls-88 {
        stroke-width: 6px;
      }

      .cls-7 {
        opacity: .16;
        stroke: url(#linear-gradient-82);
        stroke-width: 1.36px;
      }

      .cls-8 {
        stroke: url(#linear-gradient-53);
      }

      .cls-8, .cls-11, .cls-13, .cls-49, .cls-64, .cls-68, .cls-70, .cls-98 {
        opacity: .1;
      }

      .cls-9 {
        opacity: .4;
        stroke: url(#linear-gradient-12);
        stroke-width: 2.67px;
      }

      .cls-10 {
        opacity: .68;
        stroke: url(#linear-gradient-74);
        stroke-width: 4.21px;
      }

      .cls-11 {
        stroke: url(#linear-gradient-28);
      }

      .cls-12 {
        opacity: .31;
        stroke: url(#linear-gradient-31);
        stroke-width: 2.15px;
      }

      .cls-13 {
        stroke: url(#linear-gradient-83);
      }

      .cls-14 {
        opacity: .93;
        stroke: url(#linear-gradient-40);
        stroke-width: 5.62px;
      }

      .cls-15 {
        stroke: url(#linear-gradient-48);
      }

      .cls-15, .cls-27 {
        opacity: .64;
        stroke-width: 4px;
      }

      .cls-16 {
        stroke: url(#linear-gradient-52);
      }

      .cls-17 {
        stroke: url(#linear-gradient-49);
      }

      .cls-17, .cls-23 {
        opacity: .73;
        stroke-width: 4.5px;
      }

      .cls-18 {
        opacity: .36;
        stroke: url(#linear-gradient-79);
        stroke-width: 2.43px;
      }

      .cls-19 {
        opacity: .4;
        stroke: url(#linear-gradient-94);
        stroke-width: 2.33px;
      }

      .cls-20 {
        opacity: .17;
        stroke: url(#linear-gradient-29);
        stroke-width: 1.38px;
      }

      .cls-21 {
        stroke: url(#linear-gradient-84);
      }

      .cls-21, .cls-28 {
        stroke-width: 5px;
      }

      .cls-22 {
        stroke: url(#linear-gradient-50);
      }

      .cls-22, .cls-33 {
        opacity: .82;
        stroke-width: 5px;
      }

      .cls-23 {
        stroke: url(#linear-gradient-24);
      }

      .cls-24 {
        opacity: .94;
        stroke: url(#linear-gradient-67);
        stroke-width: 4.73px;
      }

      .cls-25 {
        opacity: .66;
        stroke: url(#linear-gradient-6);
        stroke-width: 4.12px;
      }

      .cls-26 {
        opacity: .49;
        stroke: url(#linear-gradient-77);
        stroke-width: 3.14px;
      }

      .cls-27 {
        stroke: url(#linear-gradient-23);
      }

      .cls-28 {
        stroke: url(#linear-gradient-68);
      }

      .cls-29 {
        stroke: url(#linear-gradient-47);
      }

      .cls-30 {
        opacity: .61;
        stroke: url(#linear-gradient-75);
        stroke-width: 3.86px;
      }

      .cls-31 {
        opacity: .82;
        stroke: url(#linear-gradient-87);
        stroke-width: 4.2px;
      }

      .cls-32 {
        stroke: url(#linear-gradient-76);
      }

      .cls-33 {
        stroke: url(#linear-gradient-25);
      }

      .cls-34 {
        opacity: .33;
        stroke: url(#linear-gradient-3);
        stroke-width: 2.25px;
      }

      .cls-35 {
        stroke: url(#linear-gradient-41);
      }

      .cls-36 {
        opacity: .16;
        stroke: url(#linear-gradient-98);
        stroke-width: 1.27px;
      }

      .cls-37 {
        opacity: .85;
        stroke: url(#linear-gradient-15);
        stroke-width: 5.17px;
      }

      .cls-38 {
        opacity: .24;
        stroke: url(#linear-gradient-30);
        stroke-width: 1.77px;
      }

      .cls-39 {
        stroke: url(#linear-gradient-20);
      }

      .cls-39, .cls-85 {
        opacity: .37;
        stroke-width: 2.5px;
      }

      .cls-40 {
        opacity: .86;
        stroke: url(#linear-gradient-39);
        stroke-width: 5.23px;
      }

      .cls-41 {
        opacity: .22;
        stroke: url(#linear-gradient-55);
        stroke-width: 1.53px;
      }

      .cls-42 {
        stroke: url(#linear-gradient-19);
      }

      .cls-42, .cls-71 {
        opacity: .28;
        stroke-width: 2px;
      }

      .cls-43 {
        opacity: .28;
        stroke: url(#linear-gradient-56);
        stroke-width: 1.8px;
      }

      .cls-44 {
        opacity: .88;
        stroke: url(#linear-gradient-86);
        stroke-width: 4.47px;
      }

      .cls-45 {
        opacity: .78;
        stroke: url(#linear-gradient-7);
        stroke-width: 4.75px;
      }

      .cls-46 {
        opacity: .34;
        stroke: url(#linear-gradient-57);
        stroke-width: 2.07px;
      }

      .cls-47 {
        opacity: .81;
        stroke: url(#linear-gradient-72);
        stroke-width: 4.93px;
      }

      .cls-48 {
        opacity: .42;
        stroke: url(#linear-gradient-78);
        stroke-width: 2.79px;
      }

      .cls-49 {
        stroke: url(#linear-gradient-42);
      }

      .cls-50 {
        stroke: url(#linear-gradient-5);
      }

      .cls-51 {
        opacity: .65;
        stroke: url(#linear-gradient-36);
        stroke-width: 4.08px;
      }

      .cls-52 {
        opacity: .7;
        stroke: url(#linear-gradient-89);
        stroke-width: 3.67px;
      }

      .cls-53 {
        opacity: .29;
        stroke: url(#linear-gradient-80);
        stroke-width: 2.07px;
      }

      .cls-54 {
        opacity: .22;
        stroke: url(#linear-gradient-97);
        stroke-width: 1.53px;
      }

      .cls-55 {
        opacity: .58;
        stroke: url(#linear-gradient-61);
        stroke-width: 3.13px;
      }

      .cls-56 {
        opacity: .7;
        stroke: url(#linear-gradient-14);
        stroke-width: 4.33px;
      }

      .cls-57 {
        opacity: .34;
        stroke: url(#linear-gradient-95);
        stroke-width: 2.07px;
      }

      .cls-58 {
        opacity: .58;
        stroke: url(#linear-gradient-91);
        stroke-width: 3.13px;
      }

      .cls-59 {
        opacity: .89;
        stroke: url(#linear-gradient-8);
        stroke-width: 5.38px;
      }

      .cls-60 {
        stroke: url(#linear-gradient-69);
      }

      .cls-61 {
        stroke: url(#linear-gradient-18);
      }

      .cls-61, .cls-92 {
        opacity: .19;
        stroke-width: 1.5px;
      }

      .cls-62 {
        opacity: .28;
        stroke: url(#linear-gradient-96);
        stroke-width: 1.8px;
      }

      .cls-63 {
        opacity: .87;
        stroke: url(#linear-gradient-71);
        stroke-width: 5.29px;
      }

      .cls-64 {
        stroke: url(#linear-gradient-99);
      }

      .cls-65 {
        stroke: url(#linear-gradient-46);
      }

      .cls-65, .cls-84 {
        opacity: .46;
        stroke-width: 3px;
      }

      .cls-66 {
        opacity: .58;
        stroke: url(#linear-gradient-35);
        stroke-width: 3.69px;
      }

      .cls-67 {
        opacity: .64;
        stroke: url(#linear-gradient-90);
        stroke-width: 3.4px;
      }

      .cls-68 {
        stroke: url(#linear-gradient-17);
      }

      .cls-69 {
        opacity: .46;
        stroke: url(#linear-gradient-59);
        stroke-width: 2.6px;
      }

      .cls-70 {
        stroke: url(#linear-gradient);
      }

      .cls-71 {
        stroke: url(#linear-gradient-44);
      }

      .cls-72 {
        opacity: .52;
        stroke: url(#linear-gradient-60);
        stroke-width: 2.87px;
      }

      .cls-73 {
        opacity: .7;
        stroke: url(#linear-gradient-63);
        stroke-width: 3.67px;
      }

      .cls-74 {
        opacity: .64;
        stroke: url(#linear-gradient-62);
        stroke-width: 3.4px;
      }

      .cls-75 {
        opacity: .52;
        stroke: url(#linear-gradient-34);
        stroke-width: 3.31px;
      }

      .cls-76 {
        stroke: url(#linear-gradient-22);
      }

      .cls-77 {
        opacity: .16;
        stroke: url(#linear-gradient-54);
        stroke-width: 1.27px;
      }

      .cls-78 {
        opacity: .76;
        stroke: url(#linear-gradient-64);
        stroke-width: 3.93px;
      }

      .cls-79 {
        opacity: .25;
        stroke: url(#linear-gradient-11);
        stroke-width: 1.83px;
      }

      .cls-80 {
        stroke: url(#linear-gradient-16);
      }

      .cls-81 {
        opacity: .52;
        stroke: url(#linear-gradient-92);
        stroke-width: 2.87px;
      }

      .cls-82 {
        opacity: .72;
        stroke: url(#linear-gradient-37);
        stroke-width: 4.46px;
      }

      .cls-83 {
        opacity: .45;
        stroke: url(#linear-gradient-33);
        stroke-width: 2.92px;
      }

      .cls-84 {
        stroke: url(#linear-gradient-21);
      }

      .cls-85 {
        stroke: url(#linear-gradient-45);
      }

      .cls-86 {
        opacity: .23;
        stroke: url(#linear-gradient-81);
        stroke-width: 1.71px;
      }

      .cls-87 {
        opacity: .79;
        stroke: url(#linear-gradient-38);
        stroke-width: 4.85px;
      }

      .cls-88 {
        stroke: url(#linear-gradient-27);
      }

      .cls-89 {
        opacity: .44;
        stroke: url(#linear-gradient-4);
        stroke-width: 2.88px;
      }

      .cls-90 {
        opacity: .74;
        stroke: url(#linear-gradient-73);
        stroke-width: 4.57px;
      }

      .cls-91 {
        opacity: .94;
        stroke: url(#linear-gradient-85);
        stroke-width: 4.73px;
      }

      .cls-92 {
        stroke: url(#linear-gradient-43);
      }

      .cls-93 {
        opacity: .94;
        stroke: url(#linear-gradient-70);
        stroke-width: 5.64px;
      }

      .cls-94 {
        stroke: url(#linear-gradient-26);
      }

      .cls-94, .cls-96 {
        opacity: .91;
        stroke-width: 5.5px;
      }

      .cls-95 {
        opacity: .82;
        stroke: url(#linear-gradient-65);
        stroke-width: 4.2px;
      }

      .cls-96 {
        stroke: url(#linear-gradient-51);
      }

      .cls-97 {
        opacity: .4;
        stroke: url(#linear-gradient-58);
        stroke-width: 2.33px;
      }

      .cls-98 {
        stroke: url(#linear-gradient-10);
      }

      .cls-99 {
        opacity: .76;
        stroke: url(#linear-gradient-88);
        stroke-width: 3.93px;
      }
    </style>
    <linearGradient id="linear-gradient" x1="509.97" y1="688.34" x2="860.14" y2="688.34" gradientUnits="userSpaceOnUse">
      <stop offset="0" stop-color="#29abe2"/>
      <stop offset="1" stop-color="#2e3192"/>
    </linearGradient>
    <linearGradient id="linear-gradient-2" x1="503.74" y1="680.98" x2="854.8" y2="680.98" xlink:href="#linear-gradient"/>
    <linearGradient id="linear-gradient-3" x1="497.5" y1="673.62" x2="849.46" y2="673.62" xlink:href="#linear-gradient"/>
    <linearGradient id="linear-gradient-4" x1="491.27" y1="666.26" x2="844.12" y2="666.26" xlink:href="#linear-gradient"/>
    <linearGradient id="linear-gradient-5" x1="485.03" y1="658.9" x2="838.78" y2="658.9" xlink:href="#linear-gradient"/>
    <linearGradient id="linear-gradient-6" x1="478.79" y1="651.54" x2="833.44" y2="651.54" xlink:href="#linear-gradient"/>
    <linearGradient id="linear-gradient-7" x1="472.56" y1="644.18" x2="828.1" y2="644.18" xlink:href="#linear-gradient"/>
    <linearGradient id="linear-gradient-8" x1="466.32" y1="636.82" x2="822.76" y2="636.82" xlink:href="#linear-gradient"/>
    <linearGradient id="linear-gradient-9" x1="460.09" y1="629.46" x2="817.42" y2="629.46" xlink:href="#linear-gradient"/>
    <linearGradient id="linear-gradient-10" x1="1547.16" y1="214.52" x2="1807.9" y2="214.52" xlink:href="#linear-gradient"/>
    <linearGradient id="linear-gradient-11" x1="1553.05" y1="206.67" x2="1814.73" y2="206.67" xlink:href="#linear-gradient"/>
    <linearGradient id="linear-gradient-12" x1="1558.93" y1="198.83" x2="1821.57" y2="198.83" xlink:href="#linear-gradient"/>
    <linearGradient id="linear-gradient-13" x1="1564.82" y1="190.99" x2="1828.4" y2="190.99" xlink:href="#linear-gradient"/>
    <linearGradient id="linear-gradient-14" x1="1570.7" y1="183.14" x2="1835.23" y2="183.14" xlink:href="#linear-gradient"/>
    <linearGradient id="linear-gradient-15" x1="1576.59" y1="175.3" x2="1842.07" y2="175.3" xlink:href="#linear-gradient"/>
    <linearGradient id="linear-gradient-16" x1="1582.47" y1="167.46" x2="1848.9" y2="167.46" xlink:href="#linear-gradient"/>
    <linearGradient id="linear-gradient-17" x1="1126.03" y1="479.18" x2="1530.71" y2="479.18" xlink:href="#linear-gradient"/>
    <linearGradient id="linear-gradient-18" x1="1119.92" y1="470.82" x2="1525.11" y2="470.82" xlink:href="#linear-gradient"/>
    <linearGradient id="linear-gradient-19" x1="1113.81" y1="462.47" x2="1519.51" y2="462.47" xlink:href="#linear-gradient"/>
    <linearGradient id="linear-gradient-20" x1="1107.7" y1="454.11" x2="1513.9" y2="454.11" xlink:href="#linear-gradient"/>
    <linearGradient id="linear-gradient-21" x1="1101.59" y1="445.76" x2="1508.3" y2="445.76" xlink:href="#linear-gradient"/>
    <linearGradient id="linear-gradient-22" x1="1095.47" y1="437.4" x2="1502.7" y2="437.4" xlink:href="#linear-gradient"/>
    <linearGradient id="linear-gradient-23" x1="1089.36" y1="429.04" x2="1497.1" y2="429.04" xlink:href="#linear-gradient"/>
    <linearGradient id="linear-gradient-24" x1="1083.25" y1="420.69" x2="1491.49" y2="420.69" xlink:href="#linear-gradient"/>
    <linearGradient id="linear-gradient-25" x1="1077.14" y1="412.33" x2="1485.89" y2="412.33" xlink:href="#linear-gradient"/>
    <linearGradient id="linear-gradient-26" x1="1071.03" y1="403.98" x2="1480.29" y2="403.98" xlink:href="#linear-gradient"/>
    <linearGradient id="linear-gradient-27" x1="1064.92" y1="395.62" x2="1474.69" y2="395.62" xlink:href="#linear-gradient"/>
    <linearGradient id="linear-gradient-28" x1="50.68" y1="832.94" x2="247.74" y2="832.94" xlink:href="#linear-gradient"/>
    <linearGradient id="linear-gradient-29" x1="58.83" y1="827.07" x2="256.28" y2="827.07" xlink:href="#linear-gradient"/>
    <linearGradient id="linear-gradient-30" x1="66.98" y1="821.2" x2="264.82" y2="821.2" xlink:href="#linear-gradient"/>
    <linearGradient id="linear-gradient-31" x1="75.13" y1="815.33" x2="273.36" y2="815.33" xlink:href="#linear-gradient"/>
    <linearGradient id="linear-gradient-32" x1="83.28" y1="809.46" x2="281.9" y2="809.46" xlink:href="#linear-gradient"/>
    <linearGradient id="linear-gradient-33" x1="91.43" y1="803.59" x2="290.44" y2="803.59" xlink:href="#linear-gradient"/>
    <linearGradient id="linear-gradient-34" x1="99.58" y1="797.72" x2="298.98" y2="797.72" xlink:href="#linear-gradient"/>
    <linearGradient id="linear-gradient-35" x1="107.73" y1="791.86" x2="307.52" y2="791.86" xlink:href="#linear-gradient"/>
    <linearGradient id="linear-gradient-36" x1="115.88" y1="785.99" x2="316.07" y2="785.99" xlink:href="#linear-gradient"/>
    <linearGradient id="linear-gradient-37" x1="124.03" y1="780.12" x2="324.61" y2="780.12" xlink:href="#linear-gradient"/>
    <linearGradient id="linear-gradient-38" x1="132.18" y1="774.25" x2="333.15" y2="774.25" xlink:href="#linear-gradient"/>
    <linearGradient id="linear-gradient-39" x1="140.33" y1="768.38" x2="341.69" y2="768.38" xlink:href="#linear-gradient"/>
    <linearGradient id="linear-gradient-40" x1="148.48" y1="762.51" x2="350.23" y2="762.51" xlink:href="#linear-gradient"/>
    <linearGradient id="linear-gradient-41" x1="156.63" y1="756.64" x2="358.77" y2="756.64" xlink:href="#linear-gradient"/>
    <linearGradient id="linear-gradient-42" x1="175.55" y1="322.39" x2="520.91" y2="322.39" xlink:href="#linear-gradient"/>
    <linearGradient id="linear-gradient-43" x1="167.5" y1="316.47" x2="513.42" y2="316.47" xlink:href="#linear-gradient"/>
    <linearGradient id="linear-gradient-44" x1="159.44" y1="310.55" x2="505.93" y2="310.55" xlink:href="#linear-gradient"/>
    <linearGradient id="linear-gradient-45" x1="151.39" y1="304.63" x2="498.44" y2="304.63" xlink:href="#linear-gradient"/>
    <linearGradient id="linear-gradient-46" x1="143.33" y1="298.71" x2="490.96" y2="298.71" xlink:href="#linear-gradient"/>
    <linearGradient id="linear-gradient-47" x1="135.28" y1="292.79" x2="483.47" y2="292.79" xlink:href="#linear-gradient"/>
    <linearGradient id="linear-gradient-48" x1="127.22" y1="286.87" x2="475.98" y2="286.87" xlink:href="#linear-gradient"/>
    <linearGradient id="linear-gradient-49" x1="119.17" y1="280.95" x2="468.49" y2="280.95" xlink:href="#linear-gradient"/>
    <linearGradient id="linear-gradient-50" x1="111.11" y1="275.03" x2="461" y2="275.03" xlink:href="#linear-gradient"/>
    <linearGradient id="linear-gradient-51" x1="103.06" y1="269.11" x2="453.51" y2="269.11" xlink:href="#linear-gradient"/>
    <linearGradient id="linear-gradient-52" x1="95" y1="263.19" x2="446.03" y2="263.19" xlink:href="#linear-gradient"/>
    <linearGradient id="linear-gradient-53" x1="1377.64" y1="879.77" x2="1727.36" y2="879.77" gradientTransform="translate(-181.4 471.19) rotate(-16)" xlink:href="#linear-gradient"/>
    <linearGradient id="linear-gradient-54" x1="1384.12" y1="872.22" x2="1734.14" y2="872.22" gradientTransform="translate(-181.4 471.19) rotate(-16)" xlink:href="#linear-gradient"/>
    <linearGradient id="linear-gradient-55" x1="1390.6" y1="864.68" x2="1740.92" y2="864.68" gradientTransform="translate(-181.4 471.19) rotate(-16)" xlink:href="#linear-gradient"/>
    <linearGradient id="linear-gradient-56" x1="1397.09" y1="857.14" x2="1747.7" y2="857.14" gradientTransform="translate(-181.4 471.19) rotate(-16)" xlink:href="#linear-gradient"/>
    <linearGradient id="linear-gradient-57" x1="1403.57" y1="849.59" x2="1754.49" y2="849.59" gradientTransform="translate(-181.4 471.19) rotate(-16)" xlink:href="#linear-gradient"/>
    <linearGradient id="linear-gradient-58" x1="1410.06" y1="842.05" x2="1761.27" y2="842.05" gradientTransform="translate(-181.4 471.19) rotate(-16)" xlink:href="#linear-gradient"/>
    <linearGradient id="linear-gradient-59" x1="1416.54" y1="834.51" x2="1768.05" y2="834.51" gradientTransform="translate(-181.4 471.19) rotate(-16)" xlink:href="#linear-gradient"/>
    <linearGradient id="linear-gradient-60" x1="1423.02" y1="826.96" x2="1774.83" y2="826.96" gradientTransform="translate(-181.4 471.19) rotate(-16)" xlink:href="#linear-gradient"/>
    <linearGradient id="linear-gradient-61" x1="1429.51" y1="819.42" x2="1781.61" y2="819.42" gradientTransform="translate(-181.4 471.19) rotate(-16)" xlink:href="#linear-gradient"/>
    <linearGradient id="linear-gradient-62" x1="1435.99" y1="811.87" x2="1788.39" y2="811.87" gradientTransform="translate(-181.4 471.19) rotate(-16)" xlink:href="#linear-gradient"/>
    <linearGradient id="linear-gradient-63" x1="1442.47" y1="804.33" x2="1795.17" y2="804.33" gradientTransform="translate(-181.4 471.19) rotate(-16)" xlink:href="#linear-gradient"/>
    <linearGradient id="linear-gradient-64" x1="1448.96" y1="796.79" x2="1801.96" y2="796.79" gradientTransform="translate(-181.4 471.19) rotate(-16)" xlink:href="#linear-gradient"/>
    <linearGradient id="linear-gradient-65" x1="1455.44" y1="789.24" x2="1808.74" y2="789.24" gradientTransform="translate(-181.4 471.19) rotate(-16)" xlink:href="#linear-gradient"/>
    <linearGradient id="linear-gradient-66" x1="1461.92" y1="781.7" x2="1815.52" y2="781.7" gradientTransform="translate(-181.4 471.19) rotate(-16)" xlink:href="#linear-gradient"/>
    <linearGradient id="linear-gradient-67" x1="1468.41" y1="774.16" x2="1822.3" y2="774.16" gradientTransform="translate(-181.4 471.19) rotate(-16)" xlink:href="#linear-gradient"/>
    <linearGradient id="linear-gradient-68" x1="1474.89" y1="766.61" x2="1829.08" y2="766.61" gradientTransform="translate(-181.4 471.19) rotate(-16)" xlink:href="#linear-gradient"/>
    <linearGradient id="linear-gradient-69" x1="648.6" y1="220.93" x2="920.86" y2="220.93" xlink:href="#linear-gradient"/>
    <linearGradient id="linear-gradient-70" x1="658.38" y1="224.5" x2="930.19" y2="224.5" xlink:href="#linear-gradient"/>
    <linearGradient id="linear-gradient-71" x1="668.07" y1="228.09" x2="939.52" y2="228.09" xlink:href="#linear-gradient"/>
    <linearGradient id="linear-gradient-72" x1="677.76" y1="231.67" x2="948.85" y2="231.67" xlink:href="#linear-gradient"/>
    <linearGradient id="linear-gradient-73" x1="687.44" y1="235.26" x2="958.18" y2="235.26" xlink:href="#linear-gradient"/>
    <linearGradient id="linear-gradient-74" x1="697.13" y1="238.85" x2="967.51" y2="238.85" xlink:href="#linear-gradient"/>
    <linearGradient id="linear-gradient-75" x1="706.82" y1="242.43" x2="976.84" y2="242.43" xlink:href="#linear-gradient"/>
    <linearGradient id="linear-gradient-76" x1="716.51" y1="246.02" x2="986.17" y2="246.02" xlink:href="#linear-gradient"/>
    <linearGradient id="linear-gradient-77" x1="726.19" y1="249.61" x2="995.5" y2="249.61" xlink:href="#linear-gradient"/>
    <linearGradient id="linear-gradient-78" x1="735.88" y1="253.19" x2="1004.83" y2="253.19" xlink:href="#linear-gradient"/>
    <linearGradient id="linear-gradient-79" x1="745.57" y1="256.78" x2="1014.16" y2="256.78" xlink:href="#linear-gradient"/>
    <linearGradient id="linear-gradient-80" x1="755.26" y1="260.37" x2="1023.49" y2="260.37" xlink:href="#linear-gradient"/>
    <linearGradient id="linear-gradient-81" x1="764.95" y1="263.95" x2="1032.82" y2="263.95" xlink:href="#linear-gradient"/>
    <linearGradient id="linear-gradient-82" x1="774.63" y1="267.54" x2="1042.15" y2="267.54" xlink:href="#linear-gradient"/>
    <linearGradient id="linear-gradient-83" x1="784.23" y1="271.14" x2="1051.48" y2="271.14" xlink:href="#linear-gradient"/>
    <linearGradient id="linear-gradient-84" x1="851.99" y1="810.7" x2="1053.64" y2="810.7" gradientTransform="translate(1180.45 -477.32) rotate(54.77)" xlink:href="#linear-gradient"/>
    <linearGradient id="linear-gradient-85" x1="858.73" y1="818.07" x2="1059.99" y2="818.07" gradientTransform="translate(1180.45 -477.32) rotate(54.77)" xlink:href="#linear-gradient"/>
    <linearGradient id="linear-gradient-86" x1="865.42" y1="825.47" x2="1066.41" y2="825.47" gradientTransform="translate(1180.45 -477.32) rotate(54.77)" xlink:href="#linear-gradient"/>
    <linearGradient id="linear-gradient-87" x1="872.11" y1="832.88" x2="1072.83" y2="832.88" gradientTransform="translate(1180.45 -477.32) rotate(54.77)" xlink:href="#linear-gradient"/>
    <linearGradient id="linear-gradient-88" x1="878.79" y1="840.28" x2="1079.25" y2="840.28" gradientTransform="translate(1180.45 -477.32) rotate(54.77)" xlink:href="#linear-gradient"/>
    <linearGradient id="linear-gradient-89" x1="885.48" y1="847.68" x2="1085.67" y2="847.68" gradientTransform="translate(1180.45 -477.32) rotate(54.77)" xlink:href="#linear-gradient"/>
    <linearGradient id="linear-gradient-90" x1="892.17" y1="855.08" x2="1092.09" y2="855.08" gradientTransform="translate(1180.45 -477.32) rotate(54.77)" xlink:href="#linear-gradient"/>
    <linearGradient id="linear-gradient-91" x1="898.86" y1="862.48" x2="1098.51" y2="862.48" gradientTransform="translate(1180.45 -477.32) rotate(54.77)" xlink:href="#linear-gradient"/>
    <linearGradient id="linear-gradient-92" x1="905.55" y1="869.88" x2="1104.94" y2="869.88" gradientTransform="translate(1180.45 -477.32) rotate(54.77)" xlink:href="#linear-gradient"/>
    <linearGradient id="linear-gradient-93" x1="912.23" y1="877.29" x2="1111.36" y2="877.29" gradientTransform="translate(1180.45 -477.32) rotate(54.77)" xlink:href="#linear-gradient"/>
    <linearGradient id="linear-gradient-94" x1="918.92" y1="884.69" x2="1117.78" y2="884.69" gradientTransform="translate(1180.45 -477.32) rotate(54.77)" xlink:href="#linear-gradient"/>
    <linearGradient id="linear-gradient-95" x1="925.61" y1="892.09" x2="1124.2" y2="892.09" gradientTransform="translate(1180.45 -477.32) rotate(54.77)" xlink:href="#linear-gradient"/>
    <linearGradient id="linear-gradient-96" x1="932.3" y1="899.49" x2="1130.62" y2="899.49" gradientTransform="translate(1180.45 -477.32) rotate(54.77)" xlink:href="#linear-gradient"/>
    <linearGradient id="linear-gradient-97" x1="938.99" y1="906.89" x2="1137.04" y2="906.89" gradientTransform="translate(1180.45 -477.32) rotate(54.77)" xlink:href="#linear-gradient"/>
    <linearGradient id="linear-gradient-98" x1="945.68" y1="914.3" x2="1143.46" y2="914.3" gradientTransform="translate(1180.45 -477.32) rotate(54.77)" xlink:href="#linear-gradient"/>
    <linearGradient id="linear-gradient-99" x1="952.32" y1="921.73" x2="1149.96" y2="921.73" gradientTransform="translate(1180.45 -477.32) rotate(54.77)" xlink:href="#linear-gradient"/>
  </defs>
  <g>
    <polygon class="cls-70" points="510.58 558.39 510.55 558.42 623.01 818.15 859.26 675.5 859.28 675.46 510.58 558.39"/>
    <polygon class="cls-2" points="504.71 550.98 504.68 551.02 617.14 810.74 853.38 668.09 853.41 668.06 504.71 550.98"/>
    <polygon class="cls-34" points="498.84 543.58 498.81 543.61 611.26 803.34 847.51 660.69 847.54 660.65 498.84 543.58"/>
    <polygon class="cls-89" points="492.96 536.18 492.93 536.21 605.39 795.94 841.64 653.28 841.66 653.25 492.96 536.18"/>
    <polygon class="cls-50" points="487.09 528.77 487.06 528.81 599.52 788.53 835.76 645.88 835.79 645.85 487.09 528.77"/>
    <polygon class="cls-25" points="481.22 521.37 481.19 521.4 593.64 781.13 829.89 638.47 829.92 638.44 481.22 521.37"/>
    <polygon class="cls-45" points="475.34 513.96 475.31 514 587.77 773.72 824.02 631.07 824.04 631.04 475.34 513.96"/>
    <polygon class="cls-59" points="469.47 506.56 469.44 506.59 581.9 766.32 818.14 623.67 818.17 623.63 469.47 506.56"/>
    <polygon class="cls-6" points="463.59 499.15 463.57 499.19 576.02 758.92 812.27 616.26 812.3 616.23 463.59 499.15"/>
  </g>
  <g>
    <polygon class="cls-98" points="1547.69 136.37 1547.68 136.41 1585.59 292.79 1807.27 257.26 1807.28 257.22 1547.69 136.37"/>
    <polygon class="cls-79" points="1554.01 128.58 1554 128.62 1591.91 285 1813.59 249.47 1813.6 249.43 1554.01 128.58"/>
    <polygon class="cls-9" points="1560.33 120.78 1560.32 120.83 1598.23 277.2 1819.9 241.68 1819.92 241.64 1560.33 120.78"/>
    <polygon class="cls-5" points="1566.65 112.99 1566.64 113.03 1604.55 269.41 1826.22 233.89 1826.24 233.85 1566.65 112.99"/>
    <polygon class="cls-56" points="1572.97 105.2 1572.95 105.24 1610.87 261.62 1832.54 226.1 1832.56 226.05 1572.97 105.2"/>
    <polygon class="cls-37" points="1579.29 97.41 1579.27 97.45 1617.18 253.83 1838.86 218.3 1838.87 218.26 1579.29 97.41"/>
    <polygon class="cls-80" points="1585.61 89.62 1585.59 89.66 1623.5 246.04 1845.18 210.51 1845.19 210.47 1585.61 89.62"/>
  </g>
  <g>
    <polygon class="cls-68" points="1525.22 363.53 1525.21 363.53 1525.2 363.5 1405.05 327.94 1240.28 380.43 1126.54 490.37 1130.28 593.96 1130.29 594 1250.19 630.42 1416.21 577.71 1530.2 466.91 1525.22 363.53"/>
    <polygon class="cls-61" points="1519.37 355.18 1519.35 355.17 1519.35 355.14 1399.19 319.58 1234.42 372.07 1120.68 482.01 1124.42 585.61 1124.44 585.65 1244.34 622.06 1410.35 569.36 1524.34 458.56 1519.37 355.18"/>
    <polygon class="cls-42" points="1513.51 346.82 1513.49 346.82 1513.49 346.78 1393.34 311.23 1228.57 363.72 1114.82 473.66 1118.56 577.25 1118.58 577.29 1238.48 613.71 1404.49 561 1518.49 450.2 1513.51 346.82"/>
    <polygon class="cls-39" points="1507.65 338.47 1507.63 338.46 1507.63 338.43 1387.48 302.87 1222.71 355.36 1108.97 465.3 1112.7 568.9 1112.72 568.93 1232.62 605.35 1398.63 552.65 1512.63 441.85 1507.65 338.47"/>
    <polygon class="cls-84" points="1501.79 330.11 1501.78 330.1 1501.78 330.07 1381.62 294.52 1216.85 347.01 1103.11 456.95 1106.85 560.54 1106.86 560.58 1226.77 597 1392.78 544.29 1506.77 433.49 1501.79 330.11"/>
    <polygon class="cls-76" points="1495.94 321.75 1495.92 321.75 1495.92 321.72 1375.77 286.16 1210.99 338.65 1097.25 448.59 1100.99 552.18 1101.01 552.22 1220.91 588.64 1386.92 535.94 1500.91 425.13 1495.94 321.75"/>
    <polygon class="cls-27" points="1490.08 313.4 1490.06 313.39 1490.06 313.36 1369.91 277.8 1205.14 330.29 1091.39 440.23 1095.13 543.83 1095.15 543.87 1215.05 580.28 1381.06 527.58 1495.06 416.78 1490.08 313.4"/>
    <polygon class="cls-23" points="1484.22 305.04 1484.21 305.04 1484.2 305 1364.05 269.45 1199.28 321.94 1085.54 431.88 1089.27 535.47 1089.29 535.51 1209.19 571.93 1375.21 519.22 1489.2 408.42 1484.22 305.04"/>
    <polygon class="cls-33" points="1478.36 296.69 1478.35 296.68 1478.35 296.65 1358.19 261.09 1193.42 313.58 1079.68 423.52 1083.42 527.12 1083.43 527.15 1203.34 563.57 1369.35 510.87 1483.34 400.07 1478.36 296.69"/>
    <polygon class="cls-94" points="1472.51 288.33 1472.49 288.33 1472.49 288.29 1352.34 252.74 1187.56 305.23 1073.82 415.17 1077.56 518.76 1077.58 518.8 1197.48 555.22 1363.49 502.51 1477.48 391.71 1472.51 288.33"/>
    <polygon class="cls-88" points="1466.65 279.97 1466.63 279.97 1466.63 279.94 1346.48 244.38 1181.71 296.87 1067.97 406.81 1071.7 510.4 1071.72 510.44 1191.62 546.86 1357.63 494.16 1471.63 383.35 1466.65 279.97"/>
  </g>
  <g>
    <path class="cls-11" d="M247.23,835.83l-52.89-86.94-79.48-37.3-59.17,34.01h0s-.02.01-.03.02l-4.48,84.91,52.48,86.24,78.99,37.55,59.57-33.31h0s.03-.02.03-.02l4.98-85.15Z"/>
    <path class="cls-20" d="M255.57,829.96l-52.89-86.94-79.48-37.3-59.17,34.01h0s-.02.01-.03.02l-4.48,84.91,52.48,86.24,78.99,37.55,59.57-33.31h0s.03-.02.03-.02l4.98-85.15Z"/>
    <path class="cls-38" d="M263.92,824.09l-52.89-86.94-79.48-37.3-59.17,34.01h0s-.02.01-.03.02l-4.48,84.91,52.48,86.24,78.99,37.55,59.57-33.31h0s.03-.02.03-.02l4.98-85.15Z"/>
    <path class="cls-12" d="M272.27,818.22l-52.89-86.94-79.48-37.3-59.17,34.01h0s-.02.01-.03.02l-4.48,84.91,52.48,86.24,78.99,37.55,59.57-33.31h0s.03-.02.03-.02l4.98-85.15Z"/>
    <path class="cls-4" d="M280.61,812.35l-52.89-86.94-79.48-37.3-59.17,34.01h0s-.02.01-.03.02l-4.48,84.91,52.48,86.24,78.99,37.55,59.57-33.31h0s.03-.02.03-.02l4.98-85.15Z"/>
    <path class="cls-83" d="M288.96,806.48l-52.89-86.94-79.48-37.3-59.17,34.01h0s-.02.01-.03.02l-4.48,84.91,52.48,86.24,78.99,37.55,59.57-33.31h0s.03-.02.03-.02l4.98-85.15Z"/>
    <path class="cls-75" d="M297.3,800.61l-52.89-86.94-79.48-37.3-59.17,34.01h0s-.02.01-.03.02l-4.48,84.91,52.48,86.24,78.99,37.55,59.57-33.31h0s.03-.02.03-.02l4.98-85.15Z"/>
    <path class="cls-66" d="M305.65,794.74l-52.89-86.94-79.48-37.3-59.17,34.01h0s-.02.01-.03.02l-4.48,84.91,52.48,86.24,78.99,37.55,59.57-33.31h0s.03-.02.03-.02l4.98-85.15Z"/>
    <path class="cls-51" d="M313.99,788.87l-52.89-86.94-79.48-37.3-59.17,34.01h0s-.02.01-.03.02l-4.48,84.91,52.48,86.24,78.99,37.55,59.57-33.31h0s.03-.02.03-.02l4.98-85.15Z"/>
    <path class="cls-82" d="M322.34,783l-52.89-86.94-79.48-37.3-59.17,34.01h0s-.02.01-.03.02l-4.48,84.91,52.48,86.24,78.99,37.55,59.57-33.31h0s.03-.02.03-.02l4.98-85.15Z"/>
    <path class="cls-87" d="M330.68,777.13l-52.89-86.94-79.48-37.3-59.17,34.01h0s-.02.01-.03.02l-4.48,84.91,52.48,86.24,78.99,37.55,59.57-33.31h0s.03-.02.03-.02l4.98-85.15Z"/>
    <path class="cls-40" d="M339.03,771.26l-52.89-86.94-79.48-37.3-59.17,34.01h0s-.02.01-.03.02l-4.48,84.91,52.48,86.24,78.99,37.55,59.57-33.31h0s.03-.02.03-.02l4.98-85.15Z"/>
    <path class="cls-14" d="M347.38,765.39l-52.89-86.94-79.48-37.3-59.17,34.01h0s-.02.01-.03.02l-4.48,84.91,52.48,86.24,78.99,37.55,59.57-33.31h0s.03-.02.03-.02l4.98-85.15Z"/>
    <path class="cls-35" d="M355.72,759.52l-52.89-86.94-79.48-37.3-59.17,34.01h0s-.02.01-.03.02l-4.48,84.91,52.48,86.24,78.99,37.55,59.57-33.31h0s.03-.02.03-.02l4.98-85.15Z"/>
  </g>
  <g>
    <polygon class="cls-49" points="414.62 137.55 414.6 137.53 202.53 223.82 176.08 451.71 176.11 451.73 372.39 507.25 520.31 312.42 414.62 137.55"/>
    <polygon class="cls-92" points="406.83 131.63 406.81 131.61 194.74 217.9 168.29 445.79 168.32 445.81 364.6 501.33 512.52 306.5 406.83 131.63"/>
    <polygon class="cls-71" points="399.04 125.71 399.02 125.69 186.95 211.98 160.5 439.87 160.53 439.89 356.81 495.41 504.73 300.58 399.04 125.71"/>
    <polygon class="cls-85" points="391.25 119.79 391.23 119.77 179.16 206.06 152.71 433.95 152.74 433.97 349.02 489.49 496.94 294.66 391.25 119.79"/>
    <polygon class="cls-65" points="383.46 113.87 383.44 113.85 171.37 200.14 144.92 428.03 144.95 428.05 341.23 483.57 489.15 288.74 383.46 113.87"/>
    <polygon class="cls-29" points="375.67 107.95 375.65 107.93 163.58 194.22 137.13 422.11 137.16 422.13 333.44 477.65 481.35 282.82 375.67 107.95"/>
    <polygon class="cls-15" points="367.88 102.03 367.86 102.01 155.79 188.3 129.34 416.19 129.37 416.21 325.65 471.73 473.56 276.9 367.88 102.03"/>
    <polygon class="cls-17" points="360.09 96.11 360.07 96.09 148 182.38 121.55 410.27 121.58 410.28 317.86 465.8 465.77 270.97 360.09 96.11"/>
    <polygon class="cls-22" points="352.3 90.18 352.28 90.17 140.21 176.45 113.76 404.35 113.79 404.36 310.07 459.88 457.98 265.05 352.3 90.18"/>
    <polygon class="cls-96" points="344.51 84.26 344.49 84.25 132.42 170.53 105.97 398.43 106 398.44 302.28 453.96 450.19 259.13 344.51 84.26"/>
    <polygon class="cls-16" points="336.72 78.34 336.7 78.33 124.63 164.61 98.18 392.5 98.21 392.52 294.49 448.04 442.4 253.21 336.72 78.34"/>
  </g>
  <g>
    <polygon class="cls-8" points="1584.57 818.15 1361.88 826.29 1361.87 826.33 1384.22 931.23 1618.72 987.86 1743.22 918.55 1743.23 918.51 1584.57 818.15"/>
    <polygon class="cls-77" points="1588.86 809.08 1366.17 817.22 1366.16 817.26 1388.51 922.16 1623.01 978.79 1747.51 909.48 1747.52 909.44 1588.86 809.08"/>
    <polygon class="cls-41" points="1593.15 800.01 1370.46 808.15 1370.45 808.19 1392.8 913.09 1627.3 969.72 1751.8 900.41 1751.8 900.36 1593.15 800.01"/>
    <polygon class="cls-43" points="1597.44 790.94 1374.74 799.08 1374.74 799.12 1397.08 904.02 1631.59 960.65 1756.08 891.34 1756.09 891.29 1597.44 790.94"/>
    <polygon class="cls-46" points="1601.72 781.87 1379.03 790.01 1379.03 790.05 1401.37 894.95 1635.87 951.58 1760.37 882.27 1760.38 882.22 1601.72 781.87"/>
    <polygon class="cls-97" points="1606.01 772.8 1383.32 780.94 1383.31 780.98 1405.66 885.88 1640.16 942.51 1764.66 873.2 1764.67 873.15 1606.01 772.8"/>
    <polygon class="cls-69" points="1610.3 763.73 1387.61 771.86 1387.6 771.91 1409.95 876.81 1644.45 933.44 1768.95 864.13 1768.96 864.08 1610.3 763.73"/>
    <polygon class="cls-72" points="1614.59 754.66 1391.9 762.79 1391.89 762.84 1414.24 867.74 1648.74 924.37 1773.24 855.06 1773.25 855.01 1614.59 754.66"/>
    <polygon class="cls-55" points="1618.88 745.59 1396.19 753.72 1396.18 753.77 1418.53 858.67 1653.03 915.3 1777.53 845.99 1777.53 845.94 1618.88 745.59"/>
    <polygon class="cls-74" points="1623.17 736.51 1400.48 744.65 1400.47 744.7 1422.82 849.6 1657.32 906.22 1781.82 836.92 1781.82 836.87 1623.17 736.51"/>
    <polygon class="cls-73" points="1627.45 727.44 1404.76 735.58 1404.76 735.63 1427.1 840.53 1661.6 897.15 1786.1 827.85 1786.11 827.8 1627.45 727.44"/>
    <polygon class="cls-78" points="1631.74 718.37 1409.05 726.51 1409.04 726.56 1431.39 831.46 1665.89 888.08 1790.39 818.78 1790.4 818.73 1631.74 718.37"/>
    <polygon class="cls-95" points="1636.03 709.3 1413.34 717.44 1413.33 717.49 1435.68 822.39 1670.18 879.01 1794.68 809.71 1794.69 809.66 1636.03 709.3"/>
    <polygon class="cls-3" points="1640.32 700.23 1417.63 708.37 1417.62 708.42 1439.97 813.32 1674.47 869.94 1798.97 800.64 1798.98 800.59 1640.32 700.23"/>
    <polygon class="cls-24" points="1644.61 691.16 1421.92 699.3 1421.91 699.35 1444.26 804.25 1678.76 860.87 1803.26 791.56 1803.27 791.52 1644.61 691.16"/>
    <polygon class="cls-28" points="1648.9 682.09 1426.21 690.23 1426.2 690.28 1448.55 795.18 1683.05 851.8 1807.55 782.49 1807.55 782.45 1648.9 682.09"/>
  </g>
  <g>
    <path class="cls-60" d="M917.86,202.42c-.02-8.14-.75-16.21-2.15-24.11-.05-.28-.1-.55-.15-.83-.07-.4-.14-.79-.22-1.19-6.79-36.22-27.33-69.11-59.72-86.68-6.73-3.65-13.97-6.65-21.71-8.87-11-3.16-22.08-4.55-33.03-4.41-38.32.21-72.81,17.88-98.95,44.71-6.39,6.37-12.25,13.24-17.47,20.47-12.49,17.32-21.85,37.34-27.25,58.31-11.72,43.79-5.93,91.14,25.34,127.37,9.34,10.82,20.22,19.27,32.05,25.43,10.78,5.62,22.35,9.33,34.25,11.24.61.1,1.23.18,1.85.28.61.09,1.21.19,1.82.27,18.34,2.54,37.56.84,56.13-5.43,27.37-9.24,51.02-26.55,69.25-48.54.01-.02.03-.03.04-.05,1.09-1.32,2.16-2.64,3.21-3.99.26-.33.51-.66.76-.99.7-.92,1.4-1.84,2.08-2.77.65-.88,1.28-1.76,1.91-2.65.27-.39.55-.78.82-1.17,12.66-18.15,21.85-38.75,26.83-60.3.13-.57.27-1.15.4-1.72.17-.76.33-1.52.48-2.28.26-1.27.52-2.55.75-3.83.08-.43.15-.86.22-1.28,1.35-7.7,2.16-15.49,2.38-23.29.02-.95.03-1.9.03-2.85,0-.28.02-.56.02-.85Z"/>
    <path class="cls-93" d="M927.37,206c.01-8.14-.75-16.21-2.15-24.11-.05-.28-.1-.55-.15-.83-.07-.4-.14-.79-.22-1.19-6.79-36.22-27.33-69.11-59.72-86.68-6.73-3.65-13.97-6.65-21.71-8.87-11-3.16-22.08-4.51-33.03-4.41-38.32.34-72.62,18.07-98.95,44.71-6.34,6.42-12.25,13.24-17.47,20.47-12.49,17.32-21.75,37.36-27.25,58.31-11.51,43.85-5.93,91.14,25.34,127.37,9.34,10.82,20.22,19.27,32.05,25.43,10.78,5.62,22.36,9.27,34.25,11.24.61.1,1.23.19,1.85.28s1.21.19,1.82.27c18.35,2.45,37.56.84,56.13-5.43,27.37-9.24,51.02-26.55,69.25-48.54.01-.02.03-.03.04-.05,1.09-1.32,2.16-2.64,3.21-3.99.26-.33.51-.66.76-.99.7-.92,1.4-1.84,2.08-2.77.65-.88,1.28-1.76,1.91-2.65.27-.39.55-.78.82-1.17,12.66-18.15,21.85-38.75,26.83-60.3.13-.57.27-1.15.4-1.72.17-.76.33-1.52.48-2.28.26-1.27.52-2.55.75-3.83.08-.43.15-.86.22-1.28,1.35-7.7,2.19-15.49,2.38-23.29.02-.95.02-1.9.03-2.85,0-.28.02-.56.02-.85Z"/>
    <path class="cls-63" d="M936.87,209.59c.01-8.14-.75-16.21-2.15-24.11-.05-.28-.1-.55-.15-.83-.07-.4-.14-.79-.22-1.19-6.79-36.22-27.33-69.11-59.72-86.68-6.73-3.65-13.97-6.65-21.71-8.87-11-3.16-22.08-4.51-33.03-4.41-38.32.34-72.62,18.07-98.95,44.71-6.34,6.42-12.25,13.24-17.47,20.47-12.49,17.32-21.75,37.36-27.25,58.31-11.51,43.85-5.93,91.14,25.34,127.37,9.34,10.82,20.22,19.27,32.05,25.43,10.78,5.62,22.36,9.27,34.25,11.24.61.1,1.23.19,1.85.28s1.21.19,1.82.27c18.35,2.45,37.56.84,56.13-5.43,27.37-9.24,51.02-26.55,69.25-48.54.01-.02.03-.03.04-.05,1.09-1.32,2.16-2.64,3.21-3.99.26-.33.51-.66.76-.99.7-.92,1.4-1.84,2.08-2.77.65-.88,1.28-1.76,1.91-2.65.27-.39.55-.78.82-1.17,12.66-18.15,21.85-38.75,26.83-60.3.13-.57.27-1.15.4-1.72.17-.76.33-1.52.48-2.28.26-1.27.52-2.55.75-3.83.08-.43.15-.86.22-1.28,1.35-7.7,2.19-15.49,2.38-23.29.02-.95.02-1.9.03-2.85,0-.28.02-.56.02-.85Z"/>
    <path class="cls-47" d="M946.38,213.18c.01-8.14-.75-16.21-2.15-24.11-.05-.28-.1-.55-.15-.83-.07-.4-.14-.79-.22-1.19-6.79-36.22-27.33-69.11-59.72-86.68-6.73-3.65-13.97-6.65-21.71-8.87-11-3.16-22.08-4.51-33.03-4.41-38.32.34-72.62,18.07-98.95,44.71-6.34,6.42-12.25,13.24-17.47,20.47-12.49,17.32-21.75,37.36-27.25,58.31-11.51,43.85-5.93,91.14,25.34,127.37,9.34,10.82,20.22,19.27,32.05,25.43,10.78,5.62,22.36,9.27,34.25,11.24.61.1,1.23.19,1.85.28s1.21.19,1.82.27c18.35,2.45,37.56.84,56.13-5.43,27.37-9.24,51.02-26.55,69.25-48.54.01-.02.03-.03.04-.05,1.09-1.32,2.16-2.64,3.21-3.99.26-.33.51-.66.76-.99.7-.92,1.4-1.84,2.08-2.77.65-.88,1.28-1.76,1.91-2.65.27-.39.55-.78.82-1.17,12.66-18.15,21.85-38.75,26.83-60.3.13-.57.27-1.15.4-1.72.17-.76.33-1.52.48-2.28.26-1.27.52-2.55.75-3.83.08-.43.15-.86.22-1.28,1.35-7.7,2.19-15.49,2.38-23.29.02-.95.02-1.9.03-2.85,0-.28.02-.56.02-.85Z"/>
    <path class="cls-90" d="M955.89,216.76c.01-8.14-.75-16.21-2.15-24.11-.05-.28-.1-.55-.15-.83-.07-.4-.14-.79-.22-1.19-6.79-36.22-27.33-69.11-59.72-86.68-6.73-3.65-13.97-6.65-21.71-8.87-11-3.16-22.08-4.51-33.03-4.41-38.32.34-72.62,18.07-98.95,44.71-6.34,6.42-12.25,13.24-17.47,20.47-12.49,17.32-21.75,37.36-27.25,58.31-11.51,43.85-5.93,91.14,25.34,127.37,9.34,10.82,20.22,19.27,32.05,25.43,10.78,5.62,22.36,9.27,34.25,11.24.61.1,1.23.19,1.85.28s1.21.19,1.82.27c18.35,2.45,37.56.84,56.13-5.43,27.37-9.24,51.02-26.55,69.25-48.54.01-.02.03-.03.04-.05,1.09-1.32,2.16-2.64,3.21-3.99.26-.33.51-.66.76-.99.7-.92,1.4-1.84,2.08-2.77.65-.88,1.28-1.76,1.91-2.65.27-.39.55-.78.82-1.17,12.66-18.15,21.85-38.75,26.83-60.3.13-.57.27-1.15.4-1.72.17-.76.33-1.52.48-2.28.26-1.27.52-2.55.75-3.83.08-.43.15-.86.22-1.28,1.35-7.7,2.19-15.49,2.38-23.29.02-.95.02-1.9.03-2.85,0-.28.02-.56.02-.85Z"/>
    <path class="cls-10" d="M965.4,220.35c.01-8.14-.75-16.21-2.15-24.11-.05-.28-.1-.55-.15-.83-.07-.4-.14-.79-.22-1.19-6.79-36.22-27.33-69.11-59.72-86.68-6.73-3.65-13.97-6.65-21.71-8.87-11-3.16-22.08-4.51-33.03-4.41-38.32.34-72.62,18.07-98.95,44.71-6.34,6.42-12.25,13.24-17.47,20.47-12.49,17.32-21.75,37.36-27.25,58.31-11.51,43.85-5.93,91.14,25.34,127.37,9.34,10.82,20.22,19.27,32.05,25.43,10.78,5.62,22.36,9.27,34.25,11.24.61.1,1.23.19,1.85.28s1.21.19,1.82.27c18.35,2.45,37.56.84,56.13-5.43,27.37-9.24,51.02-26.55,69.25-48.54.01-.02.03-.03.04-.05,1.09-1.32,2.16-2.64,3.21-3.99.26-.33.51-.66.76-.99.7-.92,1.4-1.84,2.08-2.77.65-.88,1.28-1.76,1.91-2.65.27-.39.55-.78.82-1.17,12.66-18.15,21.85-38.75,26.83-60.3.13-.57.27-1.15.4-1.72.17-.76.33-1.52.48-2.28.26-1.27.52-2.55.75-3.83.08-.43.15-.86.22-1.28,1.35-7.7,2.19-15.49,2.38-23.29.02-.95.02-1.9.03-2.85,0-.28.02-.56.02-.85Z"/>
    <path class="cls-30" d="M974.91,223.94c.01-8.14-.75-16.21-2.15-24.11-.05-.28-.1-.55-.15-.83-.07-.4-.14-.79-.22-1.19-6.79-36.22-27.33-69.11-59.72-86.68-6.73-3.65-13.97-6.65-21.71-8.87-11-3.16-22.08-4.51-33.03-4.41-38.32.34-72.62,18.07-98.95,44.71-6.34,6.42-12.25,13.24-17.47,20.47-12.49,17.32-21.75,37.36-27.25,58.31-11.51,43.85-5.93,91.14,25.34,127.37,9.34,10.82,20.22,19.27,32.05,25.43,10.78,5.62,22.36,9.27,34.25,11.24.61.1,1.23.19,1.85.28s1.21.19,1.82.27c18.35,2.45,37.56.84,56.13-5.43,27.37-9.24,51.02-26.55,69.25-48.54.01-.02.03-.03.04-.05,1.09-1.32,2.16-2.64,3.21-3.99.26-.33.51-.66.76-.99.7-.92,1.4-1.84,2.08-2.77.65-.88,1.28-1.76,1.91-2.65.27-.39.55-.78.82-1.17,12.66-18.15,21.85-38.75,26.83-60.3.13-.57.27-1.15.4-1.72.17-.76.33-1.52.48-2.28.26-1.27.52-2.55.75-3.83.08-.43.15-.86.22-1.28,1.35-7.7,2.19-15.49,2.38-23.29.02-.95.02-1.9.03-2.85,0-.28.02-.56.02-.85Z"/>
    <path class="cls-32" d="M984.42,227.52c.01-8.14-.75-16.21-2.15-24.11-.05-.28-.1-.55-.15-.83-.07-.4-.14-.79-.22-1.19-6.79-36.22-27.33-69.11-59.72-86.68-6.73-3.65-13.97-6.65-21.71-8.87-11-3.16-22.08-4.51-33.03-4.41-38.32.34-72.62,18.07-98.95,44.71-6.34,6.42-12.25,13.24-17.47,20.47-12.49,17.32-21.75,37.36-27.25,58.31-11.51,43.85-5.93,91.14,25.34,127.37,9.34,10.82,20.22,19.27,32.05,25.43,10.78,5.62,22.36,9.27,34.25,11.24.61.1,1.23.19,1.85.28s1.21.19,1.82.27c18.35,2.45,37.56.84,56.13-5.43,27.37-9.24,51.02-26.55,69.25-48.54.01-.02.03-.03.04-.05,1.09-1.32,2.16-2.64,3.21-3.99.26-.33.51-.66.76-.99.7-.92,1.4-1.84,2.08-2.77.65-.88,1.28-1.76,1.91-2.65.27-.39.55-.78.82-1.17,12.66-18.15,21.85-38.75,26.83-60.3.13-.57.27-1.15.4-1.72.17-.76.33-1.52.48-2.28.26-1.27.52-2.55.75-3.83.08-.43.15-.86.22-1.28,1.35-7.7,2.19-15.49,2.38-23.29.02-.95.02-1.9.03-2.85,0-.28.02-.56.02-.85Z"/>
    <path class="cls-26" d="M993.93,231.11c.01-8.14-.75-16.21-2.15-24.11-.05-.28-.1-.55-.15-.83-.07-.4-.14-.79-.22-1.19-6.79-36.22-27.33-69.11-59.72-86.68-6.73-3.65-13.97-6.65-21.71-8.87-11-3.16-22.08-4.51-33.03-4.41-38.32.34-72.62,18.07-98.95,44.71-6.34,6.42-12.25,13.24-17.47,20.47-12.49,17.32-21.75,37.36-27.25,58.31-11.51,43.85-5.93,91.14,25.34,127.37,9.34,10.82,20.22,19.27,32.05,25.43,10.78,5.62,22.36,9.27,34.25,11.24.61.1,1.23.19,1.85.28s1.21.19,1.82.27c18.35,2.45,37.56.84,56.13-5.43,27.37-9.24,51.02-26.55,69.25-48.54.01-.02.03-.03.04-.05,1.09-1.32,2.16-2.64,3.21-3.99.26-.33.51-.66.76-.99.7-.92,1.4-1.84,2.08-2.77.65-.88,1.28-1.76,1.91-2.65.27-.39.55-.78.82-1.17,12.66-18.15,21.85-38.75,26.83-60.3.13-.57.27-1.15.4-1.72.17-.76.33-1.52.48-2.28.26-1.27.52-2.55.75-3.83.08-.43.15-.86.22-1.28,1.35-7.7,2.19-15.49,2.38-23.29.02-.95.02-1.9.03-2.85,0-.28.02-.56.02-.85Z"/>
    <path class="cls-48" d="M1003.44,234.7c.01-8.14-.75-16.21-2.15-24.11-.05-.28-.1-.55-.15-.83-.07-.4-.14-.79-.22-1.19-6.79-36.22-27.33-69.11-59.72-86.68-6.73-3.65-13.97-6.65-21.71-8.87-11-3.16-22.08-4.51-33.03-4.41-38.32.34-72.62,18.07-98.95,44.71-6.34,6.42-12.25,13.24-17.47,20.47-12.49,17.32-21.75,37.36-27.25,58.31-11.51,43.85-5.93,91.14,25.34,127.37,9.34,10.82,20.22,19.27,32.05,25.43,10.78,5.62,22.36,9.27,34.25,11.24.61.1,1.23.19,1.85.28s1.21.19,1.82.27c18.35,2.45,37.56.84,56.13-5.43,27.37-9.24,51.02-26.55,69.25-48.54.01-.02.03-.03.04-.05,1.09-1.32,2.16-2.64,3.21-3.99.26-.33.51-.66.76-.99.7-.92,1.4-1.84,2.08-2.77.65-.88,1.28-1.76,1.91-2.65.27-.39.55-.78.82-1.17,12.66-18.15,21.85-38.75,26.83-60.3.13-.57.27-1.15.4-1.72.17-.76.33-1.52.48-2.28.26-1.27.52-2.55.75-3.83.08-.43.15-.86.22-1.28,1.35-7.7,2.19-15.49,2.38-23.29.02-.95.02-1.9.03-2.85,0-.28.02-.56.02-.85Z"/>
    <path class="cls-18" d="M1012.95,238.28c.01-8.14-.75-16.21-2.15-24.11-.05-.28-.1-.55-.15-.83-.07-.4-.14-.79-.22-1.19-6.79-36.22-27.33-69.11-59.72-86.68-6.73-3.65-13.97-6.65-21.71-8.87-11-3.16-22.08-4.51-33.03-4.41-38.32.34-72.62,18.07-98.95,44.71-6.34,6.42-12.25,13.24-17.47,20.47-12.49,17.32-21.75,37.36-27.25,58.31-11.51,43.85-5.93,91.14,25.34,127.37,9.34,10.82,20.22,19.27,32.05,25.43,10.78,5.62,22.36,9.27,34.25,11.24.61.1,1.23.19,1.85.28s1.21.19,1.82.27c18.35,2.45,37.56.84,56.13-5.43,27.37-9.24,51.02-26.55,69.25-48.54.01-.02.03-.03.04-.05,1.09-1.32,2.16-2.64,3.21-3.99.26-.33.51-.66.76-.99.7-.92,1.4-1.84,2.08-2.77.65-.88,1.28-1.76,1.91-2.65.27-.39.55-.78.82-1.17,12.66-18.15,21.85-38.75,26.83-60.3.13-.57.27-1.15.4-1.72.17-.76.33-1.52.48-2.28.26-1.27.52-2.55.75-3.83.08-.43.15-.86.22-1.28,1.35-7.7,2.19-15.49,2.38-23.29.02-.95.02-1.9.03-2.85,0-.28.02-.56.02-.85Z"/>
    <path class="cls-53" d="M1022.46,241.87c.01-8.14-.75-16.21-2.15-24.11-.05-.28-.1-.55-.15-.83-.07-.4-.14-.79-.22-1.19-6.79-36.22-27.33-69.11-59.72-86.68-6.73-3.65-13.97-6.65-21.71-8.87-11-3.16-22.08-4.51-33.03-4.41-38.32.34-72.62,18.07-98.95,44.71-6.34,6.42-12.25,13.24-17.47,20.47-12.49,17.32-21.75,37.36-27.25,58.31-11.51,43.85-5.93,91.14,25.34,127.37,9.34,10.82,20.22,19.27,32.05,25.43,10.78,5.62,22.36,9.27,34.25,11.24.61.1,1.23.19,1.85.28s1.21.19,1.82.27c18.35,2.45,37.56.84,56.13-5.43,27.37-9.24,51.02-26.55,69.25-48.54.01-.02.03-.03.04-.05,1.09-1.32,2.16-2.64,3.21-3.99.26-.33.51-.66.76-.99.7-.92,1.4-1.84,2.08-2.77.65-.88,1.28-1.76,1.91-2.65.27-.39.55-.78.82-1.17,12.66-18.15,21.85-38.75,26.83-60.3.13-.57.27-1.15.4-1.72.17-.76.33-1.52.48-2.28.26-1.27.52-2.55.75-3.83.08-.43.15-.86.22-1.28,1.35-7.7,2.19-15.49,2.38-23.29.02-.95.02-1.9.03-2.85,0-.28.02-.56.02-.85Z"/>
    <path class="cls-86" d="M1031.97,245.46c.01-8.14-.75-16.21-2.15-24.11-.05-.28-.1-.55-.15-.83-.07-.4-.14-.79-.22-1.19-6.79-36.22-27.33-69.11-59.72-86.68-6.73-3.65-13.97-6.65-21.71-8.87-11-3.16-22.08-4.51-33.03-4.41-38.32.34-72.62,18.07-98.95,44.71-6.34,6.42-12.25,13.24-17.47,20.47-12.49,17.32-21.75,37.36-27.25,58.31-11.51,43.85-5.93,91.14,25.34,127.37,9.34,10.82,20.22,19.27,32.05,25.43,10.78,5.62,22.36,9.27,34.25,11.24.61.1,1.23.19,1.85.28s1.21.19,1.82.27c18.35,2.45,37.56.84,56.13-5.43,27.37-9.24,51.02-26.55,69.25-48.54.01-.02.03-.03.04-.05,1.09-1.32,2.16-2.64,3.21-3.99.26-.33.51-.66.76-.99.7-.92,1.4-1.84,2.08-2.77.65-.88,1.28-1.76,1.91-2.65.27-.39.55-.78.82-1.17,12.66-18.15,21.85-38.75,26.83-60.3.13-.57.27-1.15.4-1.72.17-.76.33-1.52.48-2.28.26-1.27.52-2.55.75-3.83.08-.43.15-.86.22-1.28,1.35-7.7,2.19-15.49,2.38-23.29.02-.95.02-1.9.03-2.85,0-.28.02-.56.02-.85Z"/>
    <path class="cls-7" d="M1041.47,249.04c.01-8.14-.75-16.21-2.15-24.11-.05-.28-.1-.55-.15-.83-.07-.4-.14-.79-.22-1.19-6.79-36.22-27.33-69.11-59.72-86.68-6.73-3.65-13.97-6.65-21.71-8.87-11-3.16-22.08-4.51-33.03-4.41-38.32.34-72.62,18.07-98.95,44.71-6.34,6.42-12.25,13.24-17.47,20.47-12.49,17.32-21.75,37.36-27.25,58.31-11.51,43.85-5.93,91.14,25.34,127.37,9.34,10.82,20.22,19.27,32.05,25.43,10.78,5.62,22.36,9.27,34.25,11.24.61.1,1.23.19,1.85.28s1.21.19,1.82.27c18.35,2.45,37.56.84,56.13-5.43,27.37-9.24,51.02-26.55,69.25-48.54.01-.02.03-.03.04-.05,1.09-1.32,2.16-2.64,3.21-3.99.26-.33.51-.66.76-.99.7-.92,1.4-1.84,2.08-2.77.65-.88,1.28-1.76,1.91-2.65.27-.39.55-.78.82-1.17,12.66-18.15,21.85-38.75,26.83-60.3.13-.57.27-1.15.4-1.72.17-.76.33-1.52.48-2.28.26-1.27.52-2.55.75-3.83.08-.43.15-.86.22-1.28,1.35-7.7,2.19-15.49,2.38-23.29.02-.95.02-1.9.03-2.85,0-.28.02-.56.02-.85Z"/>
    <path class="cls-13" d="M1050.98,252.63c-.02-8.14-.75-16.21-2.15-24.11-.05-.28-.1-.55-.15-.83-.07-.4-.14-.79-.22-1.19-6.79-36.22-27.33-69.11-59.72-86.68-6.73-3.65-13.97-6.65-21.71-8.87-11-3.16-22.08-4.55-33.03-4.41-38.32.21-72.81,17.88-98.95,44.71-6.39,6.37-12.25,13.24-17.47,20.47-12.49,17.32-21.85,37.34-27.25,58.31-11.72,43.79-5.93,91.14,25.34,127.37,9.34,10.82,20.22,19.27,32.05,25.43,10.78,5.62,22.35,9.33,34.25,11.24.61.1,1.23.18,1.85.28.61.09,1.21.19,1.82.27,18.34,2.54,37.56.84,56.13-5.43,27.37-9.24,51.02-26.55,69.25-48.54.01-.02.03-.03.04-.05,1.09-1.32,2.16-2.64,3.21-3.99.26-.33.51-.66.76-.99.7-.92,1.4-1.84,2.08-2.77.65-.88,1.28-1.76,1.91-2.65.27-.39.55-.78.82-1.17,12.66-18.15,21.85-38.75,26.83-60.3.13-.57.27-1.15.4-1.72.17-.76.33-1.52.48-2.28.26-1.27.52-2.55.75-3.83.08-.43.15-.86.22-1.28,1.35-7.7,2.16-15.49,2.38-23.29.02-.95.03-1.9.03-2.85,0-.28.02-.56.02-.85Z"/>
  </g>
  <g>
    <path class="cls-21" d="M1143.02,830.04c13.23-2.94,25.62-9.2,29.98-19.99,2.29-5.63,2.38-12.5-.75-20.77-7.78-20.57-26.3-36.68-46.89-48.95-16.41-10.11-34.64-17.8-52.05-23.41-20.75-7.08-47.94-13.98-71.5-11.34-14.21,1.19-27.04,5.68-34.93,16.03-1.26,1.58-2.27,3.21-3.04,4.89-.33.68-.64,1.37-.9,2.05-7.37,19.08,11.23,40.03,28.07,54.02.14.12.28.24.42.35,28.35,23.64,66.28,41,104.11,46.94.27.04.55.08.82.12.92.14,1.84.28,2.76.41,7.33,1.03,14.67,1.61,21.95,1.69.06,0,.12,0,.17,0,1.17.01,2.34.01,3.51,0,.26,0,.51,0,.77,0,.53,0,1.07-.03,1.61-.04.23,0,.46,0,.69-.01,5.22-.18,10.35-.85,15.19-1.99Z"/>
    <path class="cls-91" d="M1140.75,839.61c13.21-3.03,25.62-9.2,29.98-19.99,2.29-5.63,2.38-12.5-.75-20.77-7.78-20.57-26.39-36.53-46.89-48.95-16.48-9.99-34.69-17.65-52.05-23.41-20.81-6.9-47.9-13.65-71.5-11.34-14.19,1.39-26.91,5.77-34.93,16.03-1.25,1.59-2.25,3.22-3.04,4.89-.33.69-.64,1.37-.9,2.05-7.37,19.08,11.28,39.97,28.07,54.02.14.12.28.24.42.35,28.35,23.64,66.28,41,104.11,46.94.27.04.55.08.82.12.92.14,1.84.28,2.76.41,7.33,1.03,14.67,1.61,21.95,1.69.06,0,.12,0,.17,0,1.17.01,2.34.01,3.51,0,.26,0,.51,0,.77,0,.53,0,1.07-.03,1.61-.04.23,0,.46,0,.69-.01,5.22-.18,10.34-.88,15.19-1.99Z"/>
    <path class="cls-44" d="M1138.49,849.23c13.21-3.03,25.62-9.2,29.98-19.99,2.29-5.63,2.38-12.5-.75-20.77-7.78-20.57-26.39-36.53-46.89-48.95-16.48-9.99-34.69-17.65-52.05-23.41-20.81-6.9-47.9-13.65-71.5-11.34-14.19,1.39-26.91,5.77-34.93,16.03-1.25,1.59-2.25,3.22-3.04,4.89-.33.69-.64,1.37-.9,2.05-7.37,19.08,11.28,39.97,28.07,54.02.14.12.28.24.42.35,28.35,23.64,66.28,41,104.11,46.94.27.04.55.08.82.12.92.14,1.84.28,2.76.41,7.33,1.03,14.67,1.61,21.95,1.69.06,0,.12,0,.17,0,1.17.01,2.34.01,3.51,0,.26,0,.51,0,.77,0,.53,0,1.07-.03,1.61-.04.23,0,.46,0,.69-.01,5.22-.18,10.34-.88,15.19-1.99Z"/>
    <path class="cls-31" d="M1136.22,858.86c13.21-3.03,25.62-9.2,29.98-19.99,2.29-5.63,2.38-12.5-.75-20.77-7.78-20.57-26.39-36.53-46.89-48.95-16.48-9.99-34.69-17.65-52.05-23.41-20.81-6.9-47.9-13.65-71.5-11.34-14.19,1.39-26.91,5.77-34.93,16.03-1.25,1.59-2.25,3.22-3.04,4.89-.33.69-.64,1.37-.9,2.05-7.37,19.08,11.28,39.97,28.07,54.02.14.12.28.24.42.35,28.35,23.64,66.28,41,104.11,46.94.27.04.55.08.82.12.92.14,1.84.28,2.76.41,7.33,1.03,14.67,1.61,21.95,1.69.06,0,.12,0,.17,0,1.17.01,2.34.01,3.51,0,.26,0,.51,0,.77,0,.53,0,1.07-.03,1.61-.04.23,0,.46,0,.69-.01,5.22-.18,10.34-.88,15.19-1.99Z"/>
    <path class="cls-99" d="M1133.96,868.48c13.21-3.03,25.62-9.2,29.98-19.99,2.29-5.63,2.38-12.5-.75-20.77-7.78-20.57-26.39-36.53-46.89-48.95-16.48-9.99-34.69-17.65-52.05-23.41-20.81-6.9-47.9-13.65-71.5-11.34-14.19,1.39-26.91,5.77-34.93,16.03-1.25,1.59-2.25,3.22-3.04,4.89-.33.69-.64,1.37-.9,2.05-7.37,19.08,11.28,39.97,28.07,54.02.14.12.28.24.42.35,28.35,23.64,66.28,41,104.11,46.94.27.04.55.08.82.12.92.14,1.84.28,2.76.41,7.33,1.03,14.67,1.61,21.95,1.69.06,0,.12,0,.17,0,1.17.01,2.34.01,3.51,0,.26,0,.51,0,.77,0,.53,0,1.07-.03,1.61-.04.23,0,.46,0,.69-.01,5.22-.18,10.34-.88,15.19-1.99Z"/>
    <path class="cls-52" d="M1131.69,878.11c13.21-3.03,25.62-9.2,29.98-19.99,2.29-5.63,2.38-12.5-.75-20.77-7.78-20.57-26.39-36.53-46.89-48.95-16.48-9.99-34.69-17.65-52.05-23.41-20.81-6.9-47.9-13.65-71.5-11.34-14.19,1.39-26.91,5.77-34.93,16.03-1.25,1.59-2.25,3.22-3.04,4.89-.33.69-.64,1.37-.9,2.05-7.37,19.08,11.28,39.97,28.07,54.02.14.12.28.24.42.35,28.35,23.64,66.28,41,104.11,46.94.27.04.55.08.82.12.92.14,1.84.28,2.76.41,7.33,1.03,14.67,1.61,21.95,1.69.06,0,.12,0,.17,0,1.17.01,2.34.01,3.51,0,.26,0,.51,0,.77,0,.53,0,1.07-.03,1.61-.04.23,0,.46,0,.69-.01,5.22-.18,10.34-.88,15.19-1.99Z"/>
    <path class="cls-67" d="M1129.43,887.73c13.21-3.03,25.62-9.2,29.98-19.99,2.29-5.63,2.38-12.5-.75-20.77-7.78-20.57-26.39-36.53-46.89-48.95-16.48-9.99-34.69-17.65-52.05-23.41-20.81-6.9-47.9-13.65-71.5-11.34-14.19,1.39-26.91,5.77-34.93,16.03-1.25,1.59-2.25,3.22-3.04,4.89-.33.69-.64,1.37-.9,2.05-7.37,19.08,11.28,39.97,28.07,54.02.14.12.28.24.42.35,28.35,23.64,66.28,41,104.11,46.94.27.04.55.08.82.12.92.14,1.84.28,2.76.41,7.33,1.03,14.67,1.61,21.95,1.69.06,0,.12,0,.17,0,1.17.01,2.34.01,3.51,0,.26,0,.51,0,.77,0,.53,0,1.07-.03,1.61-.04.23,0,.46,0,.69-.01,5.22-.18,10.34-.88,15.19-1.99Z"/>
    <path class="cls-58" d="M1127.17,897.35c13.21-3.03,25.62-9.2,29.98-19.99,2.29-5.63,2.38-12.5-.75-20.77-7.78-20.57-26.39-36.53-46.89-48.95-16.48-9.99-34.69-17.65-52.05-23.41-20.81-6.9-47.9-13.65-71.5-11.34-14.19,1.39-26.91,5.77-34.93,16.03-1.25,1.59-2.25,3.22-3.04,4.89-.33.69-.64,1.37-.9,2.05-7.37,19.08,11.28,39.97,28.07,54.02.14.12.28.24.42.35,28.35,23.64,66.28,41,104.11,46.94.27.04.55.08.82.12.92.14,1.84.28,2.76.41,7.33,1.03,14.67,1.61,21.95,1.69.06,0,.12,0,.17,0,1.17.01,2.34.01,3.51,0,.26,0,.51,0,.77,0,.53,0,1.07-.03,1.61-.04.23,0,.46,0,.69-.01,5.22-.18,10.34-.88,15.19-1.99Z"/>
    <path class="cls-81" d="M1124.9,906.98c13.21-3.03,25.62-9.2,29.98-19.99,2.29-5.63,2.38-12.5-.75-20.77-7.78-20.57-26.39-36.53-46.89-48.95-16.48-9.99-34.69-17.65-52.05-23.41-20.81-6.9-47.9-13.65-71.5-11.34-14.19,1.39-26.91,5.77-34.93,16.03-1.25,1.59-2.25,3.22-3.04,4.89-.33.69-.64,1.37-.9,2.05-7.37,19.08,11.28,39.97,28.07,54.02.14.12.28.24.42.35,28.35,23.64,66.28,41,104.11,46.94.27.04.55.08.82.12.92.14,1.84.28,2.76.41,7.33,1.03,14.67,1.61,21.95,1.69.06,0,.12,0,.17,0,1.17.01,2.34.01,3.51,0,.26,0,.51,0,.77,0,.53,0,1.07-.03,1.61-.04.23,0,.46,0,.69-.01,5.22-.18,10.34-.88,15.19-1.99Z"/>
    <path class="cls-1" d="M1122.64,916.6c13.21-3.03,25.62-9.2,29.98-19.99,2.29-5.63,2.38-12.5-.75-20.77-7.78-20.57-26.39-36.53-46.89-48.95-16.48-9.99-34.69-17.65-52.05-23.41-20.81-6.9-47.9-13.65-71.5-11.34-14.19,1.39-26.91,5.77-34.93,16.03-1.25,1.59-2.25,3.22-3.04,4.89-.33.69-.64,1.37-.9,2.05-7.37,19.08,11.28,39.97,28.07,54.02.14.12.28.24.42.35,28.35,23.64,66.28,41,104.11,46.94.27.04.55.08.82.12.92.14,1.84.28,2.76.41,7.33,1.03,14.67,1.61,21.95,1.69.06,0,.12,0,.17,0,1.17.01,2.34.01,3.51,0,.26,0,.51,0,.77,0,.53,0,1.07-.03,1.61-.04.23,0,.46,0,.69-.01,5.22-.18,10.34-.88,15.19-1.99Z"/>
    <path class="cls-19" d="M1120.37,926.23c13.21-3.03,25.62-9.2,29.98-19.99,2.29-5.63,2.38-12.5-.75-20.77-7.78-20.57-26.39-36.53-46.89-48.95-16.48-9.99-34.69-17.65-52.05-23.41-20.81-6.9-47.9-13.65-71.5-11.34-14.19,1.39-26.91,5.77-34.93,16.03-1.25,1.59-2.25,3.22-3.04,4.89-.33.69-.64,1.37-.9,2.05-7.37,19.08,11.28,39.97,28.07,54.02.14.12.28.24.42.35,28.35,23.64,66.28,41,104.11,46.94.27.04.55.08.82.12.92.14,1.84.28,2.76.41,7.33,1.03,14.67,1.61,21.95,1.69.06,0,.12,0,.17,0,1.17.01,2.34.01,3.51,0,.26,0,.51,0,.77,0,.53,0,1.07-.03,1.61-.04.23,0,.46,0,.69-.01,5.22-.18,10.34-.88,15.19-1.99Z"/>
    <path class="cls-57" d="M1118.11,935.85c13.21-3.03,25.62-9.2,29.98-19.99,2.29-5.63,2.38-12.5-.75-20.77-7.78-20.57-26.39-36.53-46.89-48.95-16.48-9.99-34.69-17.65-52.05-23.41-20.81-6.9-47.9-13.65-71.5-11.34-14.19,1.39-26.91,5.77-34.93,16.03-1.25,1.59-2.25,3.22-3.04,4.89-.33.69-.64,1.37-.9,2.05-7.37,19.08,11.28,39.97,28.07,54.02.14.12.28.24.42.35,28.35,23.64,66.28,41,104.11,46.94.27.04.55.08.82.12.92.14,1.84.28,2.76.41,7.33,1.03,14.67,1.61,21.95,1.69.06,0,.12,0,.17,0,1.17.01,2.34.01,3.51,0,.26,0,.51,0,.77,0,.53,0,1.07-.03,1.61-.04.23,0,.46,0,.69-.01,5.22-.18,10.34-.88,15.19-1.99Z"/>
    <path class="cls-62" d="M1115.84,945.48c13.21-3.03,25.62-9.2,29.98-19.99,2.29-5.63,2.38-12.5-.75-20.77-7.78-20.57-26.39-36.53-46.89-48.95-16.48-9.99-34.69-17.65-52.05-23.41-20.81-6.9-47.9-13.65-71.5-11.34-14.19,1.39-26.91,5.77-34.93,16.03-1.25,1.59-2.25,3.22-3.04,4.89-.33.69-.64,1.37-.9,2.05-7.37,19.08,11.28,39.97,28.07,54.02.14.12.28.24.42.35,28.35,23.64,66.28,41,104.11,46.94.27.04.55.08.82.12.92.14,1.84.28,2.76.41,7.33,1.03,14.67,1.61,21.95,1.69.06,0,.12,0,.17,0,1.17.01,2.34.01,3.51,0,.26,0,.51,0,.77,0,.53,0,1.07-.03,1.61-.04.23,0,.46,0,.69-.01,5.22-.18,10.34-.88,15.19-1.99Z"/>
    <path class="cls-54" d="M1113.58,955.1c13.21-3.03,25.62-9.2,29.98-19.99,2.29-5.63,2.38-12.5-.75-20.77-7.78-20.57-26.39-36.53-46.89-48.95-16.48-9.99-34.69-17.65-52.05-23.41-20.81-6.9-47.9-13.65-71.5-11.34-14.19,1.39-26.91,5.77-34.93,16.03-1.25,1.59-2.25,3.22-3.04,4.89-.33.69-.64,1.37-.9,2.05-7.37,19.08,11.28,39.97,28.07,54.02.14.12.28.24.42.35,28.35,23.64,66.28,41,104.11,46.94.27.04.55.08.82.12.92.14,1.84.28,2.76.41,7.33,1.03,14.67,1.61,21.95,1.69.06,0,.12,0,.17,0,1.17.01,2.34.01,3.51,0,.26,0,.51,0,.77,0,.53,0,1.07-.03,1.61-.04.23,0,.46,0,.69-.01,5.22-.18,10.34-.88,15.19-1.99Z"/>
    <path class="cls-36" d="M1111.32,964.72c13.21-3.03,25.62-9.2,29.98-19.99,2.29-5.63,2.38-12.5-.75-20.77-7.78-20.57-26.39-36.53-46.89-48.95-16.48-9.99-34.69-17.65-52.05-23.41-20.81-6.9-47.9-13.65-71.5-11.34-14.19,1.39-26.91,5.77-34.93,16.03-1.25,1.59-2.25,3.22-3.04,4.89-.33.69-.64,1.37-.9,2.05-7.37,19.08,11.28,39.97,28.07,54.02.14.12.28.24.42.35,28.35,23.64,66.28,41,104.11,46.94.27.04.55.08.82.12.92.14,1.84.28,2.76.41,7.33,1.03,14.67,1.61,21.95,1.69.06,0,.12,0,.17,0,1.17.01,2.34.01,3.51,0,.26,0,.51,0,.77,0,.53,0,1.07-.03,1.61-.04.23,0,.46,0,.69-.01,5.22-.18,10.34-.88,15.19-1.99Z"/>
    <path class="cls-64" d="M1109.05,974.4c13.23-2.94,25.62-9.2,29.98-19.99,2.29-5.63,2.38-12.5-.75-20.77-7.78-20.57-26.3-36.68-46.89-48.95-16.41-10.11-34.64-17.8-52.05-23.41-20.75-7.08-47.94-13.98-71.5-11.34-14.21,1.19-27.04,5.68-34.93,16.03-1.26,1.58-2.27,3.21-3.04,4.89-.33.68-.64,1.37-.9,2.05-7.37,19.08,11.23,40.03,28.07,54.02.14.12.28.24.42.35,28.35,23.64,66.28,41,104.11,46.94.27.04.55.08.82.12.92.14,1.84.28,2.76.41,7.33,1.03,14.67,1.61,21.95,1.69.06,0,.12,0,.17,0,1.17.01,2.34.01,3.51,0,.26,0,.51,0,.77,0,.53,0,1.07-.03,1.61-.04.23,0,.46,0,.69-.01,5.22-.18,10.35-.85,15.19-1.99Z"/>
  </g>
</svg>