<?xml version="1.0" encoding="UTF-8"?>
<svg id="Layer_2" data-name="Layer 2" xmlns="http://www.w3.org/2000/svg" viewBox="0 0 1920 1080">
  <defs>
    <style>
      .cls-1 {
        stroke: #0d889a;
        stroke-width: 4.45px;
      }

      .cls-1, .cls-2, .cls-3, .cls-4, .cls-5, .cls-6, .cls-7, .cls-8, .cls-9, .cls-10, .cls-11, .cls-12 {
        fill: none;
        stroke-miterlimit: 10;
      }

      .cls-2 {
        stroke: #00a99d;
        stroke-width: 5px;
      }

      .cls-3 {
        stroke: #049e9c;
        stroke-width: 4.82px;
      }

      .cls-4 {
        stroke: #2a3c93;
        stroke-width: 3.18px;
      }

      .cls-5 {
        stroke: #264794;
        stroke-width: 3.36px;
      }

      .cls-6 {
        stroke: #196897;
        stroke-width: 3.91px;
      }

      .cls-7 {
        stroke: #2e3192;
        stroke-width: 3px;
      }

      .cls-8 {
        stroke: #117d99;
        stroke-width: 4.27px;
      }

      .cls-9 {
        stroke: #157298;
        stroke-width: 4.09px;
      }

      .cls-10 {
        stroke: #215295;
        stroke-width: 3.55px;
      }

      .cls-11 {
        stroke: #1d5d96;
        stroke-width: 3.73px;
      }

      .cls-12 {
        stroke: #08939b;
        stroke-width: 4.64px;
      }
    </style>
  </defs>
  <path class="cls-2" d="M960,540c160,0,160,270,320,270,160,0,160-540,320-540s160,270,320,270c-160,0-160-270-320-270s-160,540-320,540c-160,0-160-270-320-270s-160-270-320-270c-160,0-160,540-320,540-160,0-160-270-320-270,160,0,160,270,320,270,160,0,160-540,320-540,160,0,160,270,320,270Z"/>
  <path class="cls-3" d="M1920,540c-160,0-160-233.18-320-233.18s-160,515.45-320,515.45-160-257.73-320-257.73c-160,0-160-270-320-270-160,0-160,539.09-320,539.09C160,833.64,160,540,0,540c160,0,160,233.18,320,233.18,160,0,160-515.45,320-515.45,160,0,160,257.73,320,257.73,160,0,160,270,320,270,160,0,160-539.09,320-539.09s160,293.64,320,293.64Z"/>
  <path class="cls-12" d="M1920,540c-160,0-160-196.36-320-196.36s-160,490.91-320,490.91c-160,0-160-245.45-320-245.45-160,0-160-270-320-270-160,0-160,538.18-320,538.18-160,0-160-317.27-320-317.27,160,0,160,196.36,320,196.36s160-490.91,320-490.91c160,0,160,245.45,320,245.45,160,0,160,270,320,270,160,0,160-538.18,320-538.18s160,317.27,320,317.27Z"/>
  <path class="cls-1" d="M1920,540c-160,0-160-159.55-320-159.55s-160,466.36-320,466.36c-160,0-160-233.18-320-233.18-160,0-160-270-320-270-160,0-160,537.27-320,537.27-160,0-160-340.91-320-340.91,160,0,160,159.55,320,159.55,160,0,160-466.36,320-466.36,160,0,160,233.18,320,233.18,160,0,160,270,320,270,160,0,160-537.27,320-537.27s160,340.91,320,340.91Z"/>
  <path class="cls-8" d="M1920,540c-160,0-160-122.73-320-122.73-160,0-160,441.82-320,441.82-160,0-160-220.91-320-220.91-160,0-160-270-320-270-160,0-160,536.36-320,536.36-160,0-160-364.55-320-364.55,160,0,160,122.73,320,122.73s160-441.82,320-441.82c160,0,160,220.91,320,220.91,160,0,160,270,320,270,160,0,160-536.36,320-536.36s160,364.55,320,364.55Z"/>
  <path class="cls-9" d="M1920,540c-160,0-160-85.91-320-85.91-160,0-160,417.27-320,417.27-160,0-160-208.64-320-208.64-160,0-160-270-320-270-160,0-160,535.45-320,535.45-160,0-160-388.18-320-388.18,160,0,160,85.91,320,85.91,160,0,160-417.27,320-417.27,160,0,160,208.64,320,208.64,160,0,160,270,320,270,160,0,160-535.45,320-535.45s160,388.18,320,388.18Z"/>
  <path class="cls-6" d="M1920,540c-160,0-160-49.09-320-49.09-160,0-160,392.73-320,392.73-160,0-160-196.36-320-196.36-160,0-160-270-320-270s-160,534.55-320,534.55c-160,0-160-411.82-320-411.82,160,0,160,49.09,320,49.09,160,0,160-392.73,320-392.73,160,0,160,196.36,320,196.36,160,0,160,270,320,270,160,0,160-534.55,320-534.55s160,411.82,320,411.82Z"/>
  <path class="cls-11" d="M1920,540c-160,0-160-12.27-320-12.27-160,0-160,368.18-320,368.18-160,0-160-184.09-320-184.09-160,0-160-270-320-270-160,0-160,533.64-320,533.64-160,0-160-435.45-320-435.45,160,0,160,12.27,320,12.27,160,0,160-368.18,320-368.18,160,0,160,184.09,320,184.09,160,0,160,270,320,270,160,0,160-533.64,320-533.64s160,435.45,320,435.45Z"/>
  <path class="cls-10" d="M1920,540c-160,0-160,24.55-320,24.55-160,0-160,343.64-320,343.64s-160-171.82-320-171.82c-160,0-160-270-320-270-160,0-160,532.73-320,532.73-160,0-160-459.09-320-459.09,160,0,160-24.55,320-24.55s160-343.64,320-343.64c160,0,160,171.82,320,171.82,160,0,160,270,320,270S1440,80.91,1600,80.91s160,459.09,320,459.09Z"/>
  <path class="cls-5" d="M1920,540c-160,0-160,61.36-320,61.36-160,0-160,319.09-320,319.09-160,0-160-159.55-320-159.55-160,0-160-270-320-270s-160,531.82-320,531.82c-160,0-160-482.73-320-482.73,160,0,160-61.36,320-61.36,160,0,160-319.09,320-319.09s160,159.55,320,159.55c160,0,160,270,320,270,160,0,160-531.82,320-531.82s160,482.73,320,482.73Z"/>
  <path class="cls-4" d="M1920,540c-160,0-160,98.18-320,98.18-160,0-160,294.55-320,294.55-160,0-160-147.27-320-147.27-160,0-160-270-320-270-160,0-160,530.91-320,530.91-160,0-160-506.36-320-506.36,160,0,160-98.18,320-98.18,160,0,160-294.55,320-294.55,160,0,160,147.27,320,147.27,160,0,160,270,320,270,160,0,160-530.91,320-530.91s160,506.36,320,506.36Z"/>
  <path class="cls-7" d="M1920,540c-160,0-160,135-320,135-160,0-160,270-320,270-160,0-160-135-320-135-160,0-160-270-320-270-160,0-160,530-320,530-160,0-160-530-320-530,160,0,160-135,320-135,160,0,160-270,320-270,160,0,160,135,320,135,160,0,160,270,320,270,160,0,160-530,320-530s160,530,320,530Z"/>
</svg>